<svg width="73" height="60" viewBox="0 0 73 60" fill="none" xmlns="http://www.w3.org/2000/svg">
<g clip-path="url(#clip0_230_3525)">
<path d="M48.006 0H26.8012C23.5033 0 20.8297 2.64554 20.8297 5.90899V53.8567C20.8297 57.1201 23.5033 59.7656 26.8012 59.7656H48.006C51.304 59.7656 53.9775 57.1201 53.9775 53.8567V5.90899C53.9775 2.64554 51.304 0 48.006 0Z" fill="#3F3D56"/>
<path d="M53.4184 5.90936V53.8567C53.4167 55.2766 52.8459 56.6379 51.8313 57.642C50.8166 58.646 49.4409 59.2108 48.0059 59.2125H26.8015C25.3665 59.2108 23.9908 58.646 22.9761 57.642C21.9615 56.6379 21.3907 55.2766 21.389 53.8567V5.90936C21.3907 4.48942 21.9615 3.12812 22.9761 2.12407C23.9908 1.12003 25.3665 0.555233 26.8015 0.553589H29.5743V1.50139C29.5743 1.93047 29.7466 2.34198 30.0532 2.64539C30.3598 2.9488 30.7757 3.11926 31.2093 3.11929H43.5981C44.0317 3.11926 44.4476 2.9488 44.7542 2.64539C45.0608 2.34198 45.2331 1.93047 45.2331 1.50139V0.553589H48.0059C49.4409 0.555233 50.8166 1.12003 51.8313 2.12407C52.8459 3.12812 53.4167 4.48942 53.4184 5.90936Z" fill="white"/>
<path d="M20.6772 12.1241C20.5694 12.124 20.466 12.0816 20.3898 12.0061C20.3135 11.9307 20.2706 11.8284 20.2705 11.7217V10.9167C20.2705 10.81 20.3134 10.7076 20.3896 10.6322C20.4659 10.5567 20.5694 10.5143 20.6772 10.5143C20.7851 10.5143 20.8886 10.5567 20.9648 10.6322C21.0411 10.7076 21.084 10.81 21.084 10.9167V11.7217C21.0838 11.8284 21.0409 11.9307 20.9647 12.0061C20.8884 12.0816 20.7851 12.124 20.6772 12.1241Z" fill="#3F3D56"/>
<path d="M20.6772 16.2516C20.5694 16.2515 20.466 16.209 20.3898 16.1336C20.3135 16.0581 20.2706 15.9558 20.2705 15.8491V13.6334C20.2705 13.5267 20.3134 13.4243 20.3896 13.3488C20.4659 13.2734 20.5694 13.231 20.6772 13.231C20.7851 13.231 20.8886 13.2734 20.9648 13.3488C21.0411 13.4243 21.084 13.5267 21.084 13.6334V15.8491C21.0838 15.9558 21.0409 16.0581 20.9647 16.1336C20.8884 16.209 20.7851 16.2515 20.6772 16.2516Z" fill="#3F3D56"/>
<path d="M20.6772 19.5697C20.5694 19.5696 20.466 19.5271 20.3898 19.4517C20.3135 19.3762 20.2706 19.2739 20.2705 19.1672V16.9515C20.2705 16.8448 20.3134 16.7424 20.3896 16.667C20.4659 16.5915 20.5694 16.5491 20.6772 16.5491C20.7851 16.5491 20.8886 16.5915 20.9648 16.667C21.0411 16.7424 21.084 16.8448 21.084 16.9515V19.1672C21.0838 19.2739 21.0409 19.3762 20.9647 19.4517C20.8884 19.5271 20.7851 19.5696 20.6772 19.5697Z" fill="#3F3D56"/>
<path d="M54.0283 17.7586C53.9205 17.7585 53.8171 17.716 53.7408 17.6406C53.6646 17.5651 53.6217 17.4628 53.6216 17.3561V11.9497C53.6216 11.843 53.6644 11.7406 53.7407 11.6651C53.817 11.5896 53.9204 11.5472 54.0283 11.5472C54.1362 11.5472 54.2396 11.5896 54.3159 11.6651C54.3922 11.7406 54.435 11.843 54.435 11.9497V17.3561C54.4349 17.4628 54.392 17.5651 54.3158 17.6406C54.2395 17.716 54.1361 17.7585 54.0283 17.7586Z" fill="#3F3D56"/>
<path d="M38.2773 1.84585H35.1252C35.0578 1.84585 34.9931 1.81935 34.9454 1.77218C34.8978 1.725 34.871 1.66102 34.871 1.59431C34.871 1.5276 34.8978 1.46362 34.9454 1.41645C34.9931 1.36928 35.0578 1.34277 35.1252 1.34277H38.2773C38.3447 1.34277 38.4093 1.36928 38.457 1.41645C38.5047 1.46362 38.5315 1.5276 38.5315 1.59431C38.5315 1.66102 38.5047 1.725 38.457 1.77218C38.4093 1.81935 38.3447 1.84585 38.2773 1.84585Z" fill="white"/>
<path d="M39.9042 1.79553C40.0165 1.79553 40.1075 1.70543 40.1075 1.5943C40.1075 1.48316 40.0165 1.39307 39.9042 1.39307C39.7919 1.39307 39.7008 1.48316 39.7008 1.5943C39.7008 1.70543 39.7919 1.79553 39.9042 1.79553Z" fill="white"/>
<path d="M64.3385 57.252C64.4127 57.2546 64.486 57.2347 64.5484 57.1948C64.6108 57.1548 64.6593 57.0969 64.6873 57.0288C64.7153 56.9607 64.7215 56.8857 64.705 56.814C64.6885 56.7424 64.6502 56.6774 64.5951 56.628C64.5856 56.5922 64.5788 56.5664 64.5694 56.5306C64.6387 56.3514 64.7605 56.1967 64.9192 56.0864C65.0779 55.9762 65.2663 55.9153 65.4602 55.9117C65.6541 55.9081 65.8446 55.9618 66.0074 56.066C66.1703 56.1703 66.2979 56.3202 66.374 56.4967C66.8131 57.4874 67.3788 58.5118 67.1129 59.61C68.9019 55.7638 68.2351 51.0066 65.5053 47.7575C64.7556 47.358 64.1441 46.6414 63.9786 45.8041C64.349 45.9244 64.8063 45.623 64.5251 45.2409C64.4034 45.0949 64.2805 44.9502 64.1588 44.8043C65.5467 43.3134 67.2398 45.62 65.7156 47.629C66.2265 48.2506 66.6703 48.9233 67.0399 49.6363C66.9488 48.8764 67.0413 48.106 67.3099 47.3884C67.5826 46.7194 68.1004 46.1533 68.5556 45.5729C69.1091 44.8657 70.2652 45.1786 70.3491 46.0687C69.8338 46.2417 69.7737 46.9813 70.3661 47.0769C70.2271 48.7354 69.1478 50.2685 67.648 51.0094C68.2193 52.5491 68.4524 54.1916 68.3318 55.8274C68.5793 53.9146 70.6472 53.4315 72.0883 52.6586C72.1799 52.5992 72.287 52.5675 72.3965 52.5673C72.506 52.5672 72.6133 52.5986 72.7051 52.6577C72.7969 52.7168 72.8693 52.801 72.9135 52.9001C72.9578 52.9993 72.9719 53.109 72.9542 53.216C72.7551 53.2983 72.5647 53.4 72.3859 53.5195C72.3021 53.5764 72.2381 53.6576 72.2028 53.7518C72.1674 53.8461 72.1624 53.9489 72.1884 54.0461C72.2144 54.1433 72.2701 54.2302 72.348 54.2948C72.4258 54.3594 72.522 54.3986 72.6232 54.4071C71.9103 56.202 70.0343 57.4205 68.0955 57.432C67.9169 58.2348 67.6545 59.0172 67.3125 59.7663L64.4351 59.7935C64.4244 59.7619 64.4148 59.7293 64.4053 59.6978C64.6717 59.7119 64.939 59.6936 65.201 59.6434C64.4884 58.8244 63.9394 58.4084 64.3384 57.252L64.3385 57.252Z" fill="#F2F2F2"/>
<path d="M8.64252 57.252C8.56826 57.2546 8.49497 57.2347 8.43258 57.1948C8.37018 57.1548 8.32169 57.0969 8.29368 57.0288C8.26568 56.9607 8.2595 56.8857 8.27599 56.814C8.29248 56.7424 8.33084 56.6774 8.38588 56.628C8.39536 56.5922 8.40217 56.5664 8.41165 56.5306C8.34234 56.3514 8.22052 56.1967 8.06181 56.0864C7.9031 55.9762 7.71473 55.9153 7.52084 55.9117C7.32695 55.9081 7.13638 55.9618 6.97357 56.066C6.81075 56.1703 6.68309 56.3202 6.60697 56.4967C6.16794 57.4874 5.60222 58.5118 5.8681 59.61C4.07913 55.7638 4.74588 51.0066 7.47569 47.7575C8.22545 47.358 8.83692 46.6414 9.00237 45.8041C8.63205 45.9244 8.17469 45.623 8.45593 45.2409C8.57764 45.0949 8.70051 44.9502 8.82222 44.8043C7.43427 43.3134 5.74125 45.62 7.26544 47.629C6.75453 48.2506 6.31069 48.9233 5.94116 49.6363C6.03223 48.8764 5.93968 48.106 5.67113 47.3884C5.3984 46.7194 4.88059 46.1533 4.42539 45.5729C3.87194 44.8657 2.71583 45.1786 2.63188 46.0687C3.14726 46.2417 3.20731 46.9813 2.61495 47.0769C2.7539 48.7354 3.83326 50.2685 5.33305 51.0094C4.76174 52.5491 4.52864 54.1916 4.64927 55.8274C4.40168 53.9146 2.33387 53.4315 0.892747 52.6586C0.801124 52.5992 0.694019 52.5675 0.584499 52.5673C0.474979 52.5672 0.367778 52.5986 0.275973 52.6577C0.184169 52.7168 0.111728 52.801 0.0674895 52.9001C0.0232506 52.9993 0.00912511 53.109 0.0268366 53.216C0.225974 53.2983 0.416356 53.4 0.595177 53.5195C0.67896 53.5764 0.742909 53.6576 0.778259 53.7518C0.813609 53.8461 0.81863 53.9489 0.792633 54.0461C0.766635 54.1433 0.710892 54.2302 0.633045 54.2948C0.555198 54.3594 0.459057 54.3986 0.357801 54.4071C1.07069 56.202 2.94674 57.4205 4.88548 57.432C5.06408 58.2348 5.32651 59.0172 5.66855 59.7663L8.54595 59.7935C8.55657 59.7619 8.56617 59.7293 8.57576 59.6978C8.30926 59.7119 8.04203 59.6936 7.78002 59.6434C8.49262 58.8244 9.04162 58.4084 8.64261 57.252L8.64252 57.252Z" fill="#F2F2F2"/>
<path d="M28.3628 2.92522H25.6174C25.4826 2.92522 25.3533 2.87222 25.2579 2.77788C25.1626 2.68353 25.109 2.55557 25.109 2.42215C25.109 2.28872 25.1626 2.16076 25.2579 2.06642C25.3533 1.97207 25.4826 1.91907 25.6174 1.91907H28.3628C28.4976 1.91907 28.6269 1.97207 28.7223 2.06642C28.8176 2.16076 28.8712 2.28872 28.8712 2.42215C28.8712 2.55557 28.8176 2.68353 28.7223 2.77788C28.6269 2.87222 28.4976 2.92522 28.3628 2.92522Z" fill="#E6E6E6"/>
<path d="M46.3603 2.8749C46.613 2.8749 46.8178 2.67219 46.8178 2.42213C46.8178 2.17207 46.613 1.96936 46.3603 1.96936C46.1076 1.96936 45.9027 2.17207 45.9027 2.42213C45.9027 2.67219 46.1076 2.8749 46.3603 2.8749Z" fill="#E6E6E6"/>
<path d="M47.7837 2.8749C48.0364 2.8749 48.2413 2.67219 48.2413 2.42213C48.2413 2.17207 48.0364 1.96936 47.7837 1.96936C47.531 1.96936 47.3262 2.17207 47.3262 2.42213C47.3262 2.67219 47.531 2.8749 47.7837 2.8749Z" fill="#E6E6E6"/>
<path d="M49.2073 2.8749C49.46 2.8749 49.6649 2.67219 49.6649 2.42213C49.6649 2.17207 49.46 1.96936 49.2073 1.96936C48.9546 1.96936 48.7498 2.17207 48.7498 2.42213C48.7498 2.67219 48.9546 2.8749 49.2073 2.8749Z" fill="#E6E6E6"/>
<path d="M46.0403 9.95667H28.7851C28.4509 9.95712 28.1304 10.0887 27.8941 10.3226C27.6577 10.5565 27.5248 10.8735 27.5243 11.2043V22.3032C27.5248 22.634 27.6577 22.951 27.8941 23.1849C28.1304 23.4188 28.4509 23.5504 28.7851 23.5508H46.0403C46.3746 23.5506 46.6951 23.419 46.9315 23.1851C47.1679 22.9512 47.3008 22.634 47.3011 22.3032V11.2043C47.3008 10.8735 47.1679 10.5563 46.9315 10.3224C46.6951 10.0885 46.3746 9.95695 46.0403 9.95667Z" fill="#F2F2F2"/>
<path d="M40.6383 14.6948C39.079 17.423 37.3582 20.0576 35.485 22.5851H32.7791C34.5514 20.4484 36.3251 18.3118 38.1002 16.1752C38.6094 15.56 39.162 14.9155 39.9258 14.6655L40.6383 14.6948Z" fill="#3F3D56"/>
<path d="M37.0423 14.2573C36.76 14.5483 36.4896 14.851 36.235 15.1654C35.6745 15.8334 35.1218 16.5072 34.5672 17.179C34.2218 17.5969 33.8764 18.0149 33.535 18.4328C33.4266 18.3639 33.3236 18.2869 33.2271 18.2024C32.6817 17.734 32.3435 17.0729 32.2848 16.3606C32.2261 15.6484 32.4517 14.9418 32.9132 14.3922C33.3747 13.8425 34.0353 13.4936 34.7537 13.4202C35.472 13.3468 36.1908 13.5548 36.7561 13.9995C36.8579 14.0781 36.9536 14.1643 37.0423 14.2573Z" fill="#F48221"/>
<path d="M47.3012 13.9401V14.3455L47.1182 14.2791L44.5426 13.3474C43.7037 13.0446 42.8669 12.6985 42.0006 12.4801C41.2469 12.2668 40.4465 12.2769 39.6985 12.5093C39.0318 12.7534 38.4218 13.1281 37.9049 13.611C37.6761 13.8203 37.4545 14.0346 37.2399 14.257C37.1698 14.3304 37.0996 14.4039 37.0304 14.4773C36.823 14.7007 36.6227 14.9291 36.4326 15.1656C35.8723 15.8336 35.3192 16.5078 34.765 17.1789C34.4193 17.5974 34.0736 18.015 33.7319 18.4325C32.5911 19.814 31.457 21.1981 30.3297 22.5849C30.1779 22.5833 30.0268 22.5644 29.8793 22.5286C31.0293 21.115 32.1847 19.705 33.3456 18.2987C33.372 18.2665 33.3984 18.2343 33.4249 18.2021C33.5611 18.0341 33.7004 17.8651 33.8387 17.697C34.4173 16.9957 34.9962 16.2951 35.5754 15.5952C35.9964 15.0861 36.4143 14.5749 36.8678 14.092C36.8952 14.0608 36.9237 14.0306 36.9532 13.9994C36.9969 13.9531 37.0406 13.9079 37.0854 13.8606C38.0706 12.8534 39.3 11.963 40.7723 11.9388C41.6386 11.9257 42.4754 12.1974 43.2807 12.4841C44.1481 12.7951 45.0124 13.111 45.8787 13.4249L47.3012 13.9401Z" fill="#3F3D56"/>
<path d="M47.7069 48.0558H27.1005C26.7662 48.0554 26.4458 47.9239 26.2094 47.69C25.9731 47.4561 25.8401 47.139 25.8397 46.8083V44.0602C25.8401 43.7294 25.9731 43.4123 26.2094 43.1784C26.4458 42.9446 26.7662 42.813 27.1005 42.8126H47.7069C48.0411 42.813 48.3616 42.9446 48.5979 43.1784C48.8343 43.4123 48.9673 43.7294 48.9676 44.0602V46.8083C48.9673 47.139 48.8343 47.4561 48.5979 47.69C48.3616 47.9239 48.0411 48.0554 47.7069 48.0558Z" fill="#F2F2F2"/>
<path d="M47.7069 33.9696H27.1005C26.7662 33.9692 26.4458 33.8377 26.2094 33.6038C25.9731 33.3699 25.8401 33.0528 25.8397 32.7221V29.974C25.8401 29.6432 25.9731 29.3261 26.2094 29.0923C26.4458 28.8584 26.7662 28.7268 27.1005 28.7264H47.7069C48.0411 28.7268 48.3616 28.8584 48.5979 29.0923C48.8343 29.3261 48.9673 29.6432 48.9676 29.974V32.7221C48.9673 33.0528 48.8343 33.3699 48.5979 33.6038C48.3616 33.8377 48.0411 33.9692 47.7069 33.9696Z" fill="#F2F2F2"/>
<path d="M47.7069 41.0127H27.1005C26.7662 41.0123 26.4458 40.8808 26.2094 40.6469C25.9731 40.413 25.8401 40.0959 25.8397 39.7652V37.0171C25.8401 36.6863 25.9731 36.3692 26.2094 36.1353C26.4458 35.9015 26.7662 35.7699 27.1005 35.7695H47.7069C48.0411 35.7699 48.3616 35.9015 48.5979 36.1353C48.8343 36.3692 48.9673 36.6863 48.9676 37.0171V39.7652C48.9673 40.0959 48.8343 40.413 48.5979 40.6469C48.3616 40.8808 48.0411 41.0123 47.7069 41.0127Z" fill="#F2F2F2"/>
<path d="M39.9072 44.9639H33.8357C33.7637 44.9639 33.6946 44.9356 33.6436 44.8852C33.5927 44.8348 33.5641 44.7664 33.5641 44.6952C33.5641 44.6239 33.5927 44.5555 33.6436 44.5051C33.6946 44.4547 33.7637 44.4264 33.8357 44.4264H39.9072C39.9792 44.4264 40.0483 44.4547 40.0993 44.5051C40.1502 44.5555 40.1788 44.6239 40.1788 44.6952C40.1788 44.7664 40.1502 44.8348 40.0993 44.8852C40.0483 44.9356 39.9792 44.9639 39.9072 44.9639Z" fill="white"/>
<path d="M45.7466 46.4421H33.7677C33.6957 46.4421 33.6266 46.4137 33.5756 46.3633C33.5247 46.3129 33.4961 46.2446 33.4961 46.1733C33.4961 46.102 33.5247 46.0337 33.5756 45.9833C33.6266 45.9329 33.6957 45.9045 33.7677 45.9045H45.7466C45.8187 45.9045 45.8877 45.9329 45.9387 45.9833C45.9896 46.0337 46.0182 46.102 46.0182 46.1733C46.0182 46.2446 45.9896 46.3129 45.9387 46.3633C45.8877 46.4137 45.8187 46.4421 45.7466 46.4421Z" fill="white"/>
<path d="M30.6101 47.2363C31.6158 47.2363 32.4311 46.4295 32.4311 45.4343C32.4311 44.4391 31.6158 43.6323 30.6101 43.6323C29.6044 43.6323 28.7891 44.4391 28.7891 45.4343C28.7891 46.4295 29.6044 47.2363 30.6101 47.2363Z" fill="white"/>
<path d="M30.2043 47.8683C30.0184 47.7824 29.806 47.7716 29.6123 47.8383C29.4185 47.9049 29.2587 48.0437 29.1669 48.2252C29.1488 48.2624 29.1338 48.301 29.1222 48.3406L26.3799 48.5028L25.9735 49.9086L29.7058 49.2846C29.8755 49.3197 30.0523 49.2982 30.2084 49.2234C30.3645 49.1487 30.4912 49.0249 30.5688 48.8714C30.612 48.7837 30.6374 48.6883 30.6435 48.5909C30.6495 48.4934 30.6361 48.3957 30.604 48.3034C30.5719 48.211 30.5217 48.1258 30.4563 48.0527C30.3909 47.9795 30.3116 47.9199 30.2229 47.877C30.2167 47.874 30.2105 47.8711 30.2043 47.8683Z" fill="#FFB6B6"/>
<path d="M24.1514 40.9338C23.9707 40.8607 23.7761 40.8269 23.5811 40.8347C23.386 40.8426 23.1949 40.8919 23.0208 40.9794C22.8467 41.0669 22.6937 41.1904 22.5722 41.3416C22.4507 41.4928 22.3635 41.6682 22.3165 41.8557L21.5626 44.8685L21.7044 50.1391C21.7044 50.1391 25.6397 50.8863 26.3003 50.406C26.9609 49.9257 26.8989 49.5681 26.9609 49.9257C27.023 50.2832 27.3065 50.4333 27.3105 50.291C27.3144 50.1488 27.3465 50.1731 27.5111 50.1302C27.6757 50.0874 28.4023 49.8224 28.4023 49.8224L28.4349 48.3197C28.4349 48.3197 27.2336 47.8691 26.9422 48.0035C26.6508 48.138 27.0042 48.3611 26.6508 48.138C26.2973 47.9149 26.2587 47.2107 26.1983 47.8453C26.1378 48.4799 25.9609 48.5981 25.6959 48.3159C25.4309 48.0337 24.2032 48.214 24.2032 48.214L24.9845 42.3551C25.0238 42.0604 24.9633 41.7612 24.8126 41.504C24.6619 41.2469 24.4294 41.0464 24.1514 40.9338Z" fill="#F48221"/>
<path d="M50.6528 56.5638L50.6941 55.454L46.3878 54.7679L46.3268 56.4059L50.6528 56.5638Z" fill="#FFB6B6"/>
<path d="M49.871 56.898L49.8302 55.1211L50.5979 55.1491L51.8373 53.5064C51.8985 53.4252 51.9843 53.3656 52.0822 53.3361C52.1801 53.3066 52.2849 53.3089 52.3814 53.3426C52.4779 53.3763 52.561 53.4396 52.6186 53.5233C52.6761 53.607 52.7051 53.7067 52.7013 53.8079L52.6226 55.9188L51.8497 56.2549L52.6038 56.4247L52.5741 57.2206L49.871 56.898Z" fill="#2F2E41"/>
<path d="M26.4164 59.1089L40.0561 57.5394C40.0561 57.5394 45.9462 57.8761 47.3282 56.9865L48.7855 56.8044L48.8645 54.6862C48.8645 54.6862 47.9733 54.6927 47.461 54.4565C46.9486 54.2203 47.3047 53.9312 46.8162 54.2154C46.3277 54.4997 46.3793 54.5338 46.0016 54.4032C45.6239 54.2726 28.3041 53.572 28.3041 53.572L26.4164 59.1089Z" fill="#2F2E41"/>
<path d="M44.39 58.1897L45.1831 57.4039L42.4977 54.0028L41.3271 55.1625L44.39 58.1897Z" fill="#FFB6B6"/>
<path d="M43.5872 57.9085L44.7786 56.5784L45.3221 57.1156L47.3598 56.7454C47.4604 56.7271 47.5643 56.7411 47.6563 56.7854C47.7483 56.8297 47.8236 56.9019 47.8712 56.9915C47.9188 57.0812 47.9362 57.1835 47.9209 57.2836C47.9055 57.3837 47.8583 57.4763 47.7859 57.548L46.2774 59.0425L45.4797 58.7687L45.9158 59.4007L45.3471 59.9642L43.5872 57.9085Z" fill="#2F2E41"/>
<path d="M21.035 51.7171L21.1706 54.8362C21.3303 58.508 25.4167 60.7303 28.5855 58.8132C28.6439 58.7778 28.7025 58.7412 28.7613 58.7034C28.7613 58.7034 29.9626 58.3841 29.9261 57.8786C29.8896 57.373 30.1831 57.127 30.4428 57.2649C30.7025 57.4027 34.1029 52.6274 34.1029 52.6274C34.1029 52.6274 41.1678 56.1147 42.7264 56.9356L44.3709 56.4922C44.3709 56.4922 44.9899 56.7815 44.7669 56.3631C44.544 55.9448 44.504 56.1451 44.4355 55.6893C44.367 55.2335 44.1918 54.6684 44.0855 54.6922C43.9793 54.7159 35.3454 48.7362 35.3454 48.7362C35.3454 48.7362 33.9388 47.3276 32.194 48.2577C32.1577 48.3943 32.1887 48.399 32.1887 48.399L26.4251 53.0463L25.6107 51.5159L21.035 51.7171Z" fill="#2F2E41"/>
<path d="M24.9089 40.2568L22.4377 39.1107L21.6979 40.3846C21.6979 40.3846 19.7108 43.1904 19.682 45.2146C19.6532 47.2388 20.0058 47.8407 20.0058 47.8407C20.0058 47.8407 19.1491 48.4745 19.5775 48.8619C20.0058 49.2494 20.9542 49.4165 20.2258 49.5845C19.4974 49.7524 19.682 51.4528 20.4955 51.7546C21.3089 52.0565 25.6775 52.0538 25.6775 52.0538C25.6382 51.922 25.6353 51.7822 25.6691 51.6489C25.7029 51.5155 25.7722 51.3936 25.8697 51.2957C26.2083 50.9598 26.5134 51.2009 26.2083 50.6779C25.9033 50.1549 25.3949 50.4567 25.8016 49.7524C26.2083 49.0481 26.2082 48.8377 26.2082 48.8377C26.2082 48.8377 27.0373 47.2762 25.7884 45.5823C25.7123 45.479 25.7763 45.475 25.7763 45.475L24.7679 42.131L24.9089 40.2568Z" fill="#F48221"/>
<path d="M20.9265 35.4379C20.9474 35.9544 20.6185 36.6862 20.4565 37.1275C20.2833 37.5993 21.0339 38.2255 21.5144 38.3626C21.5394 38.1992 21.6218 38.0497 21.7471 37.9404C21.7125 38.0962 21.7095 38.2572 21.7383 38.4141L25.8002 39.3291C26.5309 38.4918 27.2657 37.288 27.1054 35.8361C27.1438 35.5604 27.099 35.2796 26.9767 35.029C26.8544 34.7784 26.66 34.5691 26.4179 34.4275L24.3644 33.2271C23.491 33.0303 22.391 32.9115 21.7601 33.4463C21.4783 33.6945 21.2568 34.0026 21.1125 34.3475C20.9681 34.6924 20.9045 35.0652 20.9265 35.4379Z" fill="#2F2E41"/>
<path d="M24.5573 38.8867C25.8489 38.8867 26.8959 37.8507 26.8959 36.5726C26.8959 35.2945 25.8489 34.2584 24.5573 34.2584C23.2657 34.2584 22.2186 35.2945 22.2186 36.5726C22.2186 37.8507 23.2657 38.8867 24.5573 38.8867Z" fill="#FFB6B6"/>
<path d="M21.8174 35.3362L21.7046 35.8268L23.6776 36.2712C23.6793 36.172 23.7018 36.0742 23.7435 35.984C23.7853 35.8938 23.8454 35.8131 23.9202 35.747C23.8776 35.9393 23.8825 36.139 23.9343 36.3291C24.9984 36.9199 25.9574 37.1292 26.8173 36.9785C26.9338 37.0048 27.0561 36.9841 27.1573 36.9212C27.2584 36.8582 27.3301 36.7581 27.3566 36.6428C27.7026 35.1389 26.7962 33.6017 25.2838 33.2284C24.9161 33.1375 24.5339 33.12 24.1594 33.1772C23.7848 33.2343 23.4256 33.3649 23.1028 33.5612C22.7799 33.7576 22.4999 34.0157 22.2792 34.3205C22.0585 34.6253 21.9015 34.9706 21.8174 35.3362V35.3362Z" fill="#2F2E41"/>
<path d="M22.971 32.0999C23.2311 32.044 23.5064 32.0575 23.7417 31.8832L23.5874 32.2336C24.0151 32.1176 24.471 32.1627 24.8671 32.36C24.9848 32.4123 25.0853 32.4964 25.1568 32.6027C25.1952 32.6669 25.2186 32.7389 25.2252 32.8132C25.2318 32.8876 25.2214 32.9624 25.1949 33.0323C25.1696 33.0922 25.132 33.1462 25.0844 33.191C25.0368 33.2357 24.9803 33.2701 24.9185 33.292C24.809 33.3246 24.6943 33.3364 24.5803 33.327C24.1002 33.316 23.6201 33.3049 23.1399 33.2938C22.9569 33.3051 22.7741 33.2699 22.6087 33.1917C22.5207 33.1379 22.4506 33.0599 22.4068 32.9673C22.363 32.8747 22.3475 32.7714 22.3622 32.6701C22.408 32.3516 22.7108 32.1558 22.971 32.0999Z" fill="#2F2E41"/>
<path d="M35.6572 50.2369C35.6516 50.2303 35.6452 50.2245 35.638 50.2195C35.6206 50.1995 35.5993 50.183 35.5754 50.171L35.4042 50.0804L34.2681 48.8322C34.2024 48.7983 34.1259 48.7911 34.0548 48.8121L34.0519 48.8129L33.5652 48.9619L33.1466 49.0904L32.5619 49.2697L28.5795 50.49L25.9618 51.292C25.891 51.3141 25.8319 51.3629 25.7971 51.4278C25.7623 51.4927 25.7546 51.5685 25.7758 51.6389C25.7881 51.6777 25.8084 51.7134 25.8355 51.744L25.9188 51.8357L26.0935 52.0283L26.4984 52.8584L26.6107 52.9825C26.6465 53.022 26.6929 53.0505 26.7445 53.0649C26.7961 53.0792 26.8508 53.0787 26.9021 53.0634L35.526 50.6904C35.5709 50.676 35.6114 50.651 35.6441 50.6175C35.6768 50.584 35.7007 50.543 35.7137 50.4982C35.7266 50.4534 35.7283 50.4062 35.7184 50.3606C35.7085 50.315 35.6875 50.2726 35.6572 50.2369Z" fill="#CCCCCC"/>
<path d="M35.1451 37.8909L34.9781 37.9177C34.9324 37.9252 34.8914 37.9503 34.8643 37.9876L34.7907 38.0894L34.127 39.7316C34.1 39.7691 34.0892 39.8158 34.0969 39.8612L34.1746 40.3291L33.8807 48.6808C33.8882 48.724 33.9116 48.7629 33.9465 48.7899L35.2351 50.4955L35.2652 50.5192L35.33 50.5694C35.3633 50.5949 35.4046 50.6079 35.4466 50.6061L35.5561 50.601C35.581 50.5998 35.6053 50.5934 35.6275 50.5822C35.6497 50.571 35.6692 50.5553 35.6848 50.536C35.7005 50.517 35.712 50.4948 35.7183 50.4711C35.7246 50.4473 35.7256 50.4224 35.7214 50.3982L35.3475 38.0338C35.34 37.9883 35.3145 37.9478 35.2767 37.9209C35.2389 37.8941 35.1919 37.8833 35.146 37.8907L35.1451 37.8909Z" fill="#CCCCCC"/>
<path d="M34.8655 38.5398L34.2776 40.3119L34.0502 47.3906L34.9653 48.1956L34.8655 38.5398Z" fill="#F48221"/>
<path d="M30.319 49.3376C30.1332 49.2516 29.9208 49.2408 29.727 49.3075C29.5333 49.3741 29.3735 49.513 29.2816 49.6945C29.2635 49.7316 29.2486 49.7702 29.2369 49.8098L26.4947 49.972L26.0883 51.3778L29.8205 50.7538C29.9903 50.7889 30.167 50.7674 30.3231 50.6927C30.4792 50.6179 30.606 50.4942 30.6835 50.3407C30.7709 50.1634 30.7836 49.9591 30.7187 49.7726C30.6539 49.5861 30.5168 49.4328 30.3377 49.3463C30.3315 49.3433 30.3253 49.3404 30.319 49.3376Z" fill="#FFB6B6"/>
<path d="M24.2661 42.4031C24.0854 42.3299 23.8909 42.2961 23.6958 42.304C23.5007 42.3118 23.3096 42.3612 23.1356 42.4486C22.9615 42.5361 22.8085 42.6597 22.6869 42.8109C22.5654 42.9621 22.4782 43.1374 22.4313 43.3249L21.6774 46.3377L21.8192 51.6083C21.8192 51.6083 25.7544 52.3555 26.4151 51.8752C27.0757 51.3949 27.0137 51.0374 27.0757 51.3949C27.1377 51.7525 27.4213 51.9025 27.4252 51.7603C27.4291 51.618 27.4612 51.6423 27.6258 51.5995C27.7905 51.5566 28.5171 51.2916 28.5171 51.2916L28.5496 49.7889C28.5496 49.7889 27.3484 49.3383 27.057 49.4728C26.7655 49.6072 27.119 49.8303 26.7655 49.6072C26.4121 49.3841 26.3735 48.68 26.313 49.3146C26.2526 49.9492 26.0757 50.0673 25.8107 49.7851C25.5457 49.503 24.318 49.6832 24.318 49.6832L25.0992 43.8244C25.1385 43.5297 25.0781 43.2304 24.9274 42.9733C24.7766 42.7161 24.5441 42.5156 24.2661 42.4031Z" fill="#F48221"/>
<path d="M5.35552e-07 59.8802C-4.68546e-05 59.896 0.00305131 59.9116 0.00911571 59.9261C0.0151801 59.9407 0.024092 59.9539 0.035338 59.965C0.0465839 59.9761 0.0599417 59.985 0.0746441 59.991C0.0893466 59.997 0.105103 60 0.121007 60H72.852C72.8841 60 72.9148 59.9874 72.9375 59.9649C72.9602 59.9424 72.973 59.912 72.973 59.8802C72.973 59.8485 72.9602 59.818 72.9375 59.7956C72.9148 59.7731 72.8841 59.7605 72.852 59.7605H0.121C0.105097 59.7605 0.0893425 59.7635 0.074641 59.7695C0.0599395 59.7755 0.0465816 59.7843 0.0353364 59.7955C0.0240912 59.8066 0.0151799 59.8198 0.00911571 59.8344C0.0030515 59.8489 -4.63108e-05 59.8645 5.35552e-07 59.8802Z" fill="#CCCCCC"/>
<path d="M64.1791 33.9696H43.5726C43.2384 33.9692 42.9179 33.8377 42.6816 33.6038C42.4452 33.3699 42.3123 33.0528 42.3119 32.7221V29.974C42.3123 29.6432 42.4452 29.3261 42.6816 29.0923C42.9179 28.8584 43.2384 28.7268 43.5726 28.7264H64.1791C64.5133 28.7268 64.8338 28.8584 65.0701 29.0923C65.3065 29.3261 65.4394 29.6432 65.4398 29.974V32.7221C65.4394 33.0528 65.3065 33.3699 65.0701 33.6038C64.8338 33.8377 64.5133 33.9692 64.1791 33.9696Z" fill="#E6E6E6"/>
<path d="M56.3794 30.8777H50.3079C50.2358 30.8777 50.1667 30.8494 50.1158 30.799C50.0649 30.7486 50.0363 30.6803 50.0363 30.609C50.0363 30.5377 50.0649 30.4693 50.1158 30.4189C50.1667 30.3685 50.2358 30.3402 50.3079 30.3402H56.3794C56.4514 30.3402 56.5205 30.3685 56.5714 30.4189C56.6224 30.4693 56.651 30.5377 56.651 30.609C56.651 30.6803 56.6224 30.7486 56.5714 30.799C56.5205 30.8494 56.4514 30.8777 56.3794 30.8777Z" fill="white"/>
<path d="M62.2189 32.3559H50.24C50.168 32.3559 50.0989 32.3276 50.0479 32.2772C49.997 32.2268 49.9684 32.1584 49.9684 32.0871C49.9684 32.0158 49.997 31.9475 50.0479 31.8971C50.0989 31.8467 50.168 31.8184 50.24 31.8184H62.2189C62.291 31.8184 62.36 31.8467 62.411 31.8971C62.4619 31.9475 62.4905 32.0158 62.4905 32.0871C62.4905 32.1584 62.4619 32.2268 62.411 32.2772C62.36 32.3276 62.291 32.3559 62.2189 32.3559Z" fill="white"/>
<path d="M47.0823 33.1501C48.088 33.1501 48.9033 32.3433 48.9033 31.3481C48.9033 30.3529 48.088 29.5461 47.0823 29.5461C46.0765 29.5461 45.2612 30.3529 45.2612 31.3481C45.2612 32.3433 46.0765 33.1501 47.0823 33.1501Z" fill="white"/>
<path d="M57.5699 41.0127H36.9635C36.6293 41.0123 36.3088 40.8808 36.0724 40.6469C35.8361 40.413 35.7031 40.0959 35.7028 39.7652V37.0171C35.7031 36.6863 35.8361 36.3692 36.0724 36.1353C36.3088 35.9015 36.6293 35.7699 36.9635 35.7695H57.5699C57.9042 35.7699 58.2246 35.9015 58.461 36.1353C58.6973 36.3692 58.8303 36.6863 58.8307 37.0171V39.7652C58.8303 40.0959 58.6973 40.413 58.461 40.6469C58.2246 40.8808 57.9042 41.0123 57.5699 41.0127Z" fill="#E6E6E6"/>
<path d="M49.7701 37.9208H43.6986C43.6266 37.9208 43.5575 37.8925 43.5066 37.8421C43.4556 37.7917 43.427 37.7233 43.427 37.6521C43.427 37.5808 43.4556 37.5124 43.5066 37.462C43.5575 37.4116 43.6266 37.3833 43.6986 37.3833H49.7701C49.8421 37.3833 49.9112 37.4116 49.9622 37.462C50.0131 37.5124 50.0417 37.5808 50.0417 37.6521C50.0417 37.7233 50.0131 37.7917 49.9622 37.8421C49.9112 37.8925 49.8421 37.9208 49.7701 37.9208Z" fill="white"/>
<path d="M55.6097 39.399H43.6307C43.5587 39.399 43.4896 39.3707 43.4387 39.3203C43.3877 39.2699 43.3591 39.2015 43.3591 39.1302C43.3591 39.0589 43.3877 38.9906 43.4387 38.9402C43.4896 38.8898 43.5587 38.8615 43.6307 38.8615H55.6097C55.6817 38.8615 55.7508 38.8898 55.8017 38.9402C55.8527 38.9906 55.8813 39.0589 55.8813 39.1302C55.8813 39.2015 55.8527 39.2699 55.8017 39.3203C55.7508 39.3707 55.6817 39.399 55.6097 39.399Z" fill="white"/>
<path d="M40.4731 40.1932C41.4789 40.1932 42.2942 39.3864 42.2942 38.3912C42.2942 37.396 41.4789 36.5892 40.4731 36.5892C39.4674 36.5892 38.6521 37.396 38.6521 38.3912C38.6521 39.3864 39.4674 40.1932 40.4731 40.1932Z" fill="white"/>
</g>
<defs>
<clipPath id="clip0_230_3525">
<rect width="72.973" height="60" fill="white"/>
</clipPath>
</defs>
</svg>
