<svg width="79" height="60" viewBox="0 0 79 60" fill="none" xmlns="http://www.w3.org/2000/svg">
<path d="M78.9999 32.2159V57.4216C78.9991 58.1052 78.7263 58.7606 78.2414 59.2439C77.7565 59.7273 77.099 59.9992 76.4133 60H57.0178L57.1979 59.7728L78.7719 32.5046L78.9999 32.2159Z" fill="#F2F2F2"/>
<path d="M30.8717 23.3373H8.60019C8.4177 23.3373 8.24268 23.4095 8.11364 23.5382C7.9846 23.6668 7.91211 23.8413 7.91211 24.0232C7.91211 24.2051 7.9846 24.3796 8.11364 24.5082C8.24268 24.6368 8.4177 24.7091 8.60019 24.7091H30.8717C31.0542 24.7091 31.2292 24.6368 31.3582 24.5082C31.4873 24.3796 31.5598 24.2051 31.5598 24.0232C31.5598 23.8413 31.4873 23.6668 31.3582 23.5382C31.2292 23.4095 31.0542 23.3373 30.8717 23.3373Z" fill="#E6E6E6"/>
<path d="M15.5055 19.4913H8.60019C8.4177 19.4913 8.24268 19.5636 8.11364 19.6922C7.9846 19.8209 7.91211 19.9953 7.91211 20.1772C7.91211 20.3592 7.9846 20.5336 8.11364 20.6623C8.24268 20.7909 8.4177 20.8631 8.60019 20.8631H15.5055C15.688 20.8631 15.863 20.7909 15.9921 20.6623C16.1211 20.5336 16.1936 20.3592 16.1936 20.1772C16.1936 19.9953 16.1211 19.8209 15.9921 19.6922C15.863 19.5636 15.688 19.4913 15.5055 19.4913H15.5055Z" fill="#E6E6E6"/>
<path d="M76.4134 0H2.58659C1.90084 0.00082309 1.24341 0.272741 0.758508 0.756108C0.273606 1.23947 0.000825703 1.89483 0 2.57841V57.4216C0.000825703 58.1052 0.273606 58.7605 0.758508 59.2439C1.24341 59.7273 1.90084 59.9992 2.58659 60H76.4134C77.0992 59.9992 77.7566 59.7273 78.2415 59.2439C78.7264 58.7605 78.9992 58.1052 79 57.4216V2.57841C78.9992 1.89483 78.7264 1.23947 78.2415 0.756108C77.7566 0.272741 77.0992 0.00082309 76.4134 0ZM78.772 57.4216C78.772 57.7303 78.711 58.0361 78.5925 58.3213C78.4739 58.6066 78.3002 58.8658 78.0812 59.0841C77.8622 59.3024 77.6022 59.4756 77.316 59.5938C77.0298 59.7119 76.7231 59.7727 76.4134 59.7727H2.58659C1.96106 59.7727 1.36114 59.525 0.918813 59.0841C0.47649 58.6432 0.227994 58.0452 0.227994 57.4216V17.9177C0.227994 13.2259 2.09772 8.72627 5.42584 5.40867C8.75397 2.09108 13.2679 0.227273 17.9746 0.227273H76.4134C76.7231 0.227273 77.0298 0.288087 77.316 0.406243C77.6022 0.524398 77.8622 0.697582 78.0812 0.915905C78.3002 1.13423 78.4739 1.39341 78.5925 1.67867C78.711 1.96392 78.772 2.26965 78.772 2.57841V57.4216Z" fill="#E6E6E6"/>
<path d="M71.8058 9.91685H7.20018C7.16994 9.91685 7.14095 9.90488 7.11957 9.88357C7.09819 9.86225 7.08618 9.83335 7.08618 9.80321C7.08618 9.77307 7.09819 9.74417 7.11957 9.72286C7.14095 9.70155 7.16994 9.68958 7.20018 9.68958H71.8058C71.8361 9.68958 71.8651 9.70155 71.8865 9.72286C71.9078 9.74417 71.9198 9.77307 71.9198 9.80321C71.9198 9.83335 71.9078 9.86225 71.8865 9.88357C71.8651 9.90488 71.8361 9.91685 71.8058 9.91685Z" fill="#E6E6E6"/>
<path d="M10.4325 6.50544C10.965 6.50544 11.3966 6.0656 11.3966 5.52304C11.3966 4.98048 10.965 4.54065 10.4325 4.54065C9.90012 4.54065 9.46851 4.98048 9.46851 5.52304C9.46851 6.0656 9.90012 6.50544 10.4325 6.50544Z" fill="#E6E6E6"/>
<path d="M13.7626 6.50544C14.295 6.50544 14.7266 6.0656 14.7266 5.52304C14.7266 4.98048 14.295 4.54065 13.7626 4.54065C13.2302 4.54065 12.7986 4.98048 12.7986 5.52304C12.7986 6.0656 13.2302 6.50544 13.7626 6.50544Z" fill="#E6E6E6"/>
<path d="M17.0929 6.50544C17.6254 6.50544 18.057 6.0656 18.057 5.52304C18.057 4.98048 17.6254 4.54065 17.0929 4.54065C16.5605 4.54065 16.1289 4.98048 16.1289 5.52304C16.1289 6.0656 16.5605 6.50544 17.0929 6.50544Z" fill="#E6E6E6"/>
<path d="M20.8905 6.29954C20.8753 6.29956 20.8602 6.29655 20.8462 6.29068C20.8322 6.28481 20.8196 6.2762 20.809 6.26536L20.1585 5.60252C20.1377 5.58129 20.126 5.55277 20.126 5.52306C20.126 5.49336 20.1377 5.46483 20.1585 5.44361L20.809 4.78082C20.8194 4.76999 20.8319 4.76132 20.8457 4.75532C20.8595 4.74932 20.8744 4.7461 20.8894 4.74586C20.9045 4.74562 20.9194 4.74836 20.9334 4.75392C20.9474 4.75948 20.9602 4.76775 20.9709 4.77825C20.9817 4.78875 20.9903 4.80127 20.9962 4.8151C21.0021 4.82892 21.0051 4.84377 21.0052 4.85878C21.0053 4.8738 21.0024 4.88869 20.9967 4.90258C20.991 4.91647 20.9826 4.9291 20.972 4.93973L20.3995 5.52306L20.972 6.10645C20.9876 6.12244 20.9982 6.14269 21.0024 6.16466C21.0066 6.18664 21.0042 6.20935 20.9955 6.22997C20.9868 6.25059 20.9722 6.26819 20.9535 6.28056C20.9348 6.29294 20.9129 6.29954 20.8905 6.29954Z" fill="#E6E6E6"/>
<path d="M21.9834 6.29954C21.9609 6.29954 21.939 6.29294 21.9203 6.28056C21.9016 6.26819 21.887 6.25059 21.8783 6.22997C21.8696 6.20936 21.8672 6.18664 21.8714 6.16466C21.8756 6.14269 21.8862 6.12244 21.9019 6.10645L22.4743 5.52306L21.9019 4.93974C21.8811 4.91812 21.8697 4.88921 21.8702 4.85926C21.8706 4.82932 21.883 4.80078 21.9044 4.77984C21.9259 4.7589 21.9548 4.74725 21.9849 4.74744C22.0149 4.74762 22.0436 4.75962 22.0649 4.78082L22.7153 5.44361C22.7361 5.46484 22.7478 5.49336 22.7478 5.52306C22.7478 5.55277 22.7361 5.5813 22.7153 5.60252L22.0649 6.26536C22.0543 6.2762 22.0416 6.28481 22.0276 6.29068C22.0136 6.29655 21.9986 6.29956 21.9834 6.29954Z" fill="#E6E6E6"/>
<path d="M66.0444 4.65442H64.8349C64.8021 4.65441 64.7696 4.66084 64.7393 4.67334C64.709 4.68584 64.6815 4.70418 64.6583 4.72729C64.6351 4.7504 64.6167 4.77784 64.6042 4.80804C64.5916 4.83823 64.5852 4.8706 64.5852 4.90328V6.1101C64.5852 6.14278 64.5916 6.17515 64.6042 6.20535C64.6167 6.23554 64.6351 6.26298 64.6583 6.28609C64.6815 6.30921 64.709 6.32754 64.7393 6.34004C64.7696 6.35254 64.8021 6.35897 64.8349 6.35896H66.0444C66.1107 6.35903 66.1744 6.33286 66.2214 6.28621C66.2684 6.23956 66.2949 6.17623 66.2952 6.1101V4.90328C66.2949 4.83715 66.2684 4.77382 66.2214 4.72717C66.1744 4.68052 66.1107 4.65436 66.0444 4.65442Z" fill="#E6E6E6"/>
<path d="M63.0805 4.65442H61.871C61.8382 4.65441 61.8057 4.66084 61.7754 4.67334C61.7451 4.68584 61.7176 4.70418 61.6944 4.72729C61.6713 4.7504 61.6529 4.77784 61.6403 4.80804C61.6278 4.83823 61.6213 4.8706 61.6213 4.90328V6.1101C61.6213 6.14278 61.6278 6.17515 61.6403 6.20535C61.6529 6.23554 61.6713 6.26298 61.6944 6.28609C61.7176 6.30921 61.7451 6.32754 61.7754 6.34004C61.8057 6.35254 61.8382 6.35897 61.871 6.35896H63.0805C63.1468 6.35903 63.2105 6.33286 63.2575 6.28621C63.3045 6.23956 63.3311 6.17623 63.3313 6.1101V4.90328C63.3311 4.83715 63.3045 4.77382 63.2575 4.72717C63.2105 4.68052 63.1468 4.65436 63.0805 4.65442Z" fill="#E6E6E6"/>
<path d="M68.8373 4.71118H67.6278C67.595 4.71117 67.5626 4.7176 67.5323 4.7301C67.502 4.74261 67.4745 4.76094 67.4513 4.78405C67.4281 4.80716 67.4097 4.8346 67.3972 4.8648C67.3846 4.895 67.3782 4.92736 67.3782 4.96004V6.16686C67.3782 6.19955 67.3846 6.23191 67.3972 6.26211C67.4097 6.29231 67.4281 6.31975 67.4513 6.34286C67.4745 6.36597 67.502 6.3843 67.5323 6.3968C67.5626 6.40931 67.595 6.41574 67.6278 6.41573H68.8373C68.9037 6.41579 68.9673 6.38963 69.0143 6.34297C69.0614 6.29632 69.0879 6.23299 69.0881 6.16686V4.96004C69.0879 4.89392 69.0614 4.83059 69.0143 4.78393C68.9673 4.73728 68.9037 4.71112 68.8373 4.71118Z" fill="#E6E6E6"/>
<path d="M44.337 5.17029H34.6689C34.5881 5.17029 34.5107 5.20225 34.4536 5.25915C34.3966 5.31606 34.3645 5.39323 34.3645 5.4737C34.3645 5.55417 34.3966 5.63134 34.4536 5.68824C34.5107 5.74514 34.5881 5.77711 34.6689 5.77711H44.337C44.4177 5.77711 44.4951 5.74514 44.5522 5.68824C44.6093 5.63134 44.6413 5.55417 44.6413 5.4737C44.6413 5.39323 44.6093 5.31606 44.5522 5.25915C44.4951 5.20225 44.4177 5.17029 44.337 5.17029Z" fill="#E6E6E6"/>
<path d="M18.4228 46.6417L12.6412 46.4595C11.8393 46.4342 10.9376 46.4355 10.3656 46.8486C9.71651 47.3174 9.81479 48.1481 10.3538 48.6868C10.8927 49.2256 11.7533 49.5334 12.5979 49.7836C17.0853 51.1132 22.0516 51.3831 26.8737 51.0823C31.6958 50.7814 36.4187 49.931 41.1182 49.0834C41.564 49.003 42.0691 48.8873 42.2509 48.5781C42.4267 48.279 42.1967 47.9183 41.8393 47.725C41.4819 47.5316 41.0288 47.4665 40.5918 47.409C32.675 46.3719 24.6726 46.1443 16.7093 46.7299" fill="#F48221"/>
<path d="M28.8105 42.2091V40.8454C27.8178 40.8594 24.2654 40.8353 23.3387 40.8455C23.2697 45.6115 22.847 44.6779 26.764 44.6964C26.9441 44.6971 27.1165 44.7688 27.2437 44.8959C27.3708 45.0229 27.4423 45.195 27.4426 45.3745V45.3949C27.4426 45.5747 27.3709 45.7471 27.2434 45.8742C27.1159 46.0013 26.9429 46.0727 26.7626 46.0727H23.3387V47.4363H28.8105C28.8182 47.4318 28.805 46.1196 28.8105 46.0727C29.0419 42.1221 28.5841 43.543 25.2577 43.3846C25.1089 43.377 24.9687 43.3126 24.8661 43.2049C24.7635 43.0971 24.7064 42.9542 24.7066 42.8056V42.7886C24.7066 42.6349 24.7679 42.4875 24.8769 42.3788C24.9859 42.2701 25.1338 42.2091 25.288 42.2091H28.8105Z" fill="#3F3D56"/>
<path d="M35.5363 42.2091V40.8454C34.5436 40.8594 30.9912 40.8353 30.0645 40.8455C29.9949 45.6529 29.5654 44.6612 33.5929 44.6971C33.7461 44.6987 33.8925 44.7604 34.0002 44.8689C34.108 44.9774 34.1684 45.1239 34.1684 45.2766C34.1684 45.3482 34.1684 45.4216 34.1684 45.4934C34.1684 45.5694 34.1534 45.6448 34.1241 45.7151C34.0949 45.7854 34.0521 45.8493 33.9981 45.9031C33.9441 45.9569 33.88 45.9995 33.8095 46.0286C33.739 46.0577 33.6634 46.0727 33.587 46.0727H30.0645V47.4363H35.5363C35.544 47.4318 35.5308 46.1196 35.5364 46.0727C35.7677 42.1221 35.3099 43.543 31.9836 43.3846C31.8347 43.377 31.6945 43.3126 31.5919 43.2049C31.4894 43.0971 31.4323 42.9542 31.4324 42.8056V42.7886C31.4325 42.6349 31.4937 42.4875 31.6027 42.3788C31.7118 42.2701 31.8596 42.2091 32.0138 42.2091H35.5363Z" fill="#3F3D56"/>
<path d="M21.7426 42.2091V40.8455H16.2707C16.2668 42.0617 16.2735 45.2809 16.2707 46.5273C15.1981 48.3373 21.2914 47.0841 21.7429 47.4368C21.7426 47.4364 21.7426 46.0727 21.7426 46.0727C17.5793 46.0511 17.4746 46.8279 17.6086 43.0693C17.6166 42.8386 17.7142 42.6199 17.8808 42.4594C18.0474 42.2989 18.2699 42.2092 18.5016 42.209C19.7052 42.2091 21.7426 42.2091 21.7426 42.2091Z" fill="#3F3D56"/>
<path d="M32.5583 30.3537L26.7767 30.2018C25.9748 30.1807 25.0731 30.1818 24.5011 30.5261C23.852 30.917 23.9503 31.6094 24.4892 32.0585C25.0282 32.5076 25.8888 32.7641 26.7334 32.9728C31.2208 34.081 36.1871 34.306 41.0092 34.0553C45.8313 33.8045 50.5542 33.0956 55.2537 32.389C55.6995 32.322 56.2046 32.2256 56.3864 31.9678C56.5622 31.7185 56.3322 31.4178 55.9748 31.2567C55.6174 31.0955 55.1643 31.0412 54.7273 30.9932C46.7971 30.1285 38.8073 29.9391 30.8448 30.4272" fill="#F48221"/>
<path d="M31.5463 24.3682C31.4532 26.4735 32.2294 27.1361 29.5513 26.868C29.3703 25.6121 30.2879 23.8692 28.1834 24.3117C28.605 25.2227 27.0089 32.1348 29.5509 30.9019C29.6937 28.8253 28.7527 27.9144 31.5464 28.2321C31.7704 29.5159 30.7248 31.405 32.9142 30.9589C32.4927 30.0474 34.0887 23.136 31.5463 24.3682Z" fill="#3F3D56"/>
<path d="M45.5682 24.3682C45.7559 24.4838 43.8479 26.4959 43.8067 26.6608C43.7495 26.5201 41.9283 24.5514 42.1483 24.3683C39.6142 23.12 41.1935 30.0722 40.7798 30.9594C40.7803 30.9591 42.1482 30.9591 42.1482 30.9591V26.6411C44.0711 29.2263 43.714 28.7913 45.5682 26.5142L45.5682 30.9591C48.1022 32.2078 46.523 25.2547 46.9366 24.3679C46.9361 24.3682 45.5682 24.3682 45.5682 24.3682Z" fill="#3F3D56"/>
<path d="M39.5261 24.3682H34.0543C33.7327 26.2797 34.7958 25.6386 36.1064 25.7318L36.1062 30.9591H37.4742V25.7318C38.7787 25.6434 39.8517 26.2713 39.5261 24.3682Z" fill="#3F3D56"/>
<path d="M49.4439 29.5954C49.1279 27.8672 49.1279 26.0964 49.4439 24.3682H48.0759C48.0838 25.2321 48.0735 28.7184 48.0743 30.3127C48.0742 30.4847 48.1427 30.6498 48.2646 30.7715C48.3866 30.8933 48.5521 30.9617 48.7247 30.9618C50.1029 30.9637 52.734 30.9535 53.5478 30.9591L53.5478 29.5954H49.4439Z" fill="#3F3D56"/>
<path d="M14.4982 29.8228H8.93808C8.66598 29.8228 8.40502 29.9305 8.21261 30.1223C8.0202 30.3141 7.91211 30.5742 7.91211 30.8455C7.91211 31.1167 8.0202 31.3769 8.21261 31.5687C8.40502 31.7605 8.66598 31.8682 8.93808 31.8682H14.4982C14.7703 31.8682 15.0313 31.7605 15.2237 31.5687C15.4161 31.3769 15.5242 31.1167 15.5242 30.8455C15.5242 30.5742 15.4161 30.3141 15.2237 30.1223C15.0313 29.9305 14.7703 29.8228 14.4982 29.8228H14.4982Z" fill="#E6E6E6"/>
<path d="M64.909 58.8145L63.7803 58.8144L63.2434 54.4746L64.9092 54.4747L64.909 58.8145Z" fill="#FFB6B6"/>
<path d="M64.9489 59.9883L61.478 59.9882V59.9444C61.4781 59.5872 61.6204 59.2447 61.8737 58.9922C62.1271 58.7396 62.4707 58.5978 62.829 58.5977H62.8291L63.4631 58.1183L64.646 58.5978L64.949 58.5978L64.9489 59.9883Z" fill="#2F2E41"/>
<path d="M68.899 58.8145L67.7703 58.8144L67.2334 54.4746L68.8992 54.4747L68.899 58.8145Z" fill="#FFB6B6"/>
<path d="M68.9386 59.9883L65.4678 59.9882V59.9444C65.4678 59.5872 65.6101 59.2447 65.8635 58.9922C66.1168 58.7396 66.4604 58.5978 66.8187 58.5977H66.8188L67.4528 58.1183L68.6357 58.5978L68.9387 58.5978L68.9386 59.9883Z" fill="#2F2E41"/>
<path d="M62.0988 35.1682C62.0988 35.1682 61.0129 38.493 61.2133 38.9306C61.4137 39.3682 61.7557 39.0273 61.4137 39.3682C61.0718 39.7091 60.7732 39.3467 61.0935 39.9256C61.4138 40.5046 61.8989 45.2704 62.1123 45.5011C62.3257 45.7318 62.6191 45.738 62.3584 45.9622C62.0977 46.1864 61.7557 45.7318 62.0977 46.1864C62.4397 46.6409 63.3472 57.1268 63.3472 57.1268H65.12C65.12 57.1268 65.5615 56.6194 65.3116 56.2893C65.0617 55.9591 65.3335 55.8318 65.3116 55.6114C65.2897 55.3909 65.3728 54.9156 65.3882 54.6987C65.4036 54.4818 65.7032 49.3149 64.9835 46.3302L66.296 40.647L66.9522 47.5159C66.9522 47.5159 66.2209 53.2775 66.9522 55.1296C66.9522 55.1296 66.3626 55.6191 66.6241 55.9027C66.8856 56.1864 67.1136 55.9591 66.8856 56.1864C66.6576 56.4136 67.2276 57.2091 67.2276 57.2091L69.1655 57.0955L70.2624 46.3302C70.2624 46.3302 70.4473 45.2075 70.2624 45.0151C70.0775 44.8227 70.0775 45.5046 70.0775 44.8227V43.9136C70.0775 43.9136 70.9041 38.3222 70.8898 37.9929C70.8755 37.6636 69.5075 35.2773 69.5075 35.2773L62.0988 35.1682Z" fill="#2F2E41"/>
<path d="M67.8305 21.7212L65.0008 21.5272L64.154 22.8581L62.1147 23.6846V30.2408C62.3269 30.8756 62.4366 31.5399 62.4396 32.209C62.4319 33.5152 62.0951 35.0539 62.2117 35.3909C63.3516 38.6863 69.6215 35.3909 69.6215 35.3909L69.5075 31.8681L69.6622 23.9068L68.381 22.8882L67.8305 21.7212Z" fill="#E6E6E6"/>
<path d="M61.984 36.5915L61.7889 34.5186L60.5854 34.4645L60.87 36.6487C60.797 36.756 60.7555 36.8815 60.7501 37.0111C60.7448 37.1406 60.7758 37.2691 60.8396 37.382C60.9035 37.495 60.9977 37.5879 61.1117 37.6504C61.2256 37.7129 61.3548 37.7425 61.4847 37.7358C61.6146 37.7291 61.7401 37.6865 61.847 37.6126C61.9539 37.5388 62.038 37.4367 62.0899 37.3178C62.1417 37.1989 62.1593 37.0679 62.1406 36.9396C62.1219 36.8113 62.0677 36.6907 61.984 36.5915L61.984 36.5915Z" fill="#FFB6B6"/>
<path d="M62.5761 23.5098L62.5428 23.5154C62.2324 23.5678 61.9396 23.6949 61.6896 23.8855C61.4397 24.0762 61.2401 24.3247 61.1082 24.6095C60.7635 25.3525 59.6445 30.2364 60.135 30.9729C60.5155 31.5442 60.4231 31.4327 60.2442 31.8636C60.0653 32.2945 59.7773 31.8347 60.0134 32.5186C60.2495 33.2025 60.5089 33.1049 60.2897 33.3691C60.0706 33.6333 59.8458 33.5815 60.0589 34.0241C60.272 34.4666 60.2374 34.616 60.2777 34.7826C60.318 34.9493 60.2829 36.1215 60.2829 36.1215C60.2829 36.1215 61.5684 36.0243 62.2081 36.329C62.2081 36.329 61.8512 35.1452 62.053 34.9557C62.2548 34.7661 62.4969 34.7432 62.3241 34.4674C62.1513 34.1915 61.7593 34.1799 62.1859 34.0421C62.6125 33.9044 62.4751 31.4335 62.4751 31.4335C63.1777 29.5994 62.9001 26.5825 62.5761 23.5098Z" fill="#E6E6E6"/>
<path d="M70.3274 36.7394L70.4174 34.6594L71.6165 34.5448L71.4429 36.7406C71.5213 36.8441 71.5691 36.9673 71.581 37.0964C71.5929 37.2256 71.5684 37.3554 71.5103 37.4714C71.4523 37.5874 71.3629 37.685 71.2522 37.7532C71.1416 37.8213 71.0141 37.8573 70.884 37.8572C70.7539 37.8571 70.6265 37.8208 70.516 37.7524C70.4055 37.684 70.3163 37.5862 70.2584 37.4701C70.2006 37.354 70.1764 37.2241 70.1886 37.095C70.2008 36.9659 70.2489 36.8428 70.3274 36.7394Z" fill="#FFB6B6"/>
<path d="M69.0737 23.7042L69.1073 23.7082C69.4199 23.7449 69.7188 23.8571 69.9781 24.0349C70.2374 24.2127 70.4493 24.4509 70.5955 24.7288C70.9773 25.4534 72.1852 30.3616 71.8894 31.0352C71.6136 31.6633 71.625 31.5088 71.8255 31.9302C72.0259 32.3515 72.2903 31.8778 72.0891 32.5727C71.888 33.2676 71.6239 33.1832 71.8562 33.436C72.0884 33.6889 72.3103 33.6259 72.1198 34.0786C71.9294 34.5312 71.9715 34.6787 71.9397 34.8472C71.9079 35.0156 72.0022 36.1845 72.0022 36.1845C72.0022 36.1845 70.7135 36.1521 70.09 36.4887C70.09 36.4887 70.3866 35.2884 70.1754 35.1093C69.9643 34.9301 69.7213 34.9194 69.88 34.6352C70.0386 34.351 70.4295 34.3196 69.9965 34.2035C69.5634 34.0874 69.5756 31.6128 69.5756 31.6128L69.0737 23.7042Z" fill="#E6E6E6"/>
<path d="M66.4851 21.1105C67.7041 21.1105 68.6923 20.1254 68.6923 18.9102C68.6923 17.695 67.7041 16.71 66.4851 16.71C65.266 16.71 64.2778 17.695 64.2778 18.9102C64.2778 20.1254 65.266 21.1105 66.4851 21.1105Z" fill="#FFB6B6"/>
<path d="M68.0212 20.7936C68.3282 20.5541 68.358 20.0977 68.6199 19.8099C69.0579 19.3288 69.2637 18.8112 69.0343 18.2411C68.8313 17.7369 68.8745 17.1171 68.4374 16.7926C68.6521 16.7151 68.7026 16.5542 68.5132 16.5513C68.3855 16.5493 67.9093 16.7926 68.1384 16.4895C68.3675 16.1863 67.9338 16.306 67.9625 16.1819C67.9912 16.0578 68.1751 15.9891 68.2563 16.0875C68.1878 16.0177 68.1042 15.9645 68.0119 15.9319C67.9197 15.8992 67.8211 15.888 67.7239 15.8991C67.6266 15.9102 67.5331 15.9433 67.4507 15.9959C67.3682 16.0484 67.2988 16.1191 67.2479 16.2024C66.9897 15.8168 66.7157 15.5514 66.3207 15.7961C65.9327 16.0365 65.9377 16.3337 65.5205 16.2623C65.3244 16.2287 65.3059 16.5981 65.1719 16.7448C65.1099 16.8227 65.0294 16.884 64.9376 16.923C64.8459 16.962 64.7458 16.9775 64.6465 16.9681C64.4509 16.9313 64.3014 16.6883 64.4109 16.5227L63.9501 17.5709L63.7643 17.3438C63.4692 17.5355 63.5661 18.0358 63.8632 18.2246C64.1603 18.4133 64.5464 18.373 64.8885 18.2893C65.3003 18.1886 65.7256 18.1534 66.1484 18.1851C66.7943 18.2761 67.2442 19.0459 67.005 19.6509C67.2532 19.408 67.7123 19.6096 67.8409 19.9317C67.9694 20.2539 67.8752 20.6169 67.7799 20.9503" fill="#2F2E41"/>
</svg>
