<svg width="74" height="60" viewBox="0 0 74 60" fill="none" xmlns="http://www.w3.org/2000/svg">
<g clip-path="url(#clip0_230_3623)">
<path d="M70.4936 38.9947C70.4324 41.281 70.0492 43.5474 69.3554 45.7268C69.3396 45.7774 69.323 45.8272 69.3063 45.8778H65.0588C65.0633 45.8325 65.0679 45.7819 65.0724 45.7268C65.3556 42.4725 66.9885 22.6656 65.0361 19.2784C65.2068 19.5532 70.8229 28.6542 70.4936 38.9947Z" fill="#F0F0F0"/>
<path d="M70.1751 45.7268C70.1396 45.7774 70.1026 45.828 70.0648 45.8778H66.8784C66.9026 45.8348 66.9305 45.7842 66.963 45.7268C67.4894 44.7772 69.0475 41.938 70.4938 38.9947C72.0481 35.8317 73.474 32.5487 73.3539 31.3605C73.391 31.6285 74.4665 39.7979 70.1751 45.7268Z" fill="#F0F0F0"/>
<path d="M8.46382 6.41858C6.5115 9.80578 8.14435 29.6126 8.42757 32.867C8.4321 32.9221 8.43663 32.9726 8.44117 33.0179H4.19363C4.177 32.9674 4.16038 32.9175 4.14453 32.867C3.45075 30.6875 3.0676 28.4212 3.00636 26.1348C2.67708 15.7943 8.29313 6.69336 8.46382 6.41858Z" fill="#F0F0F0"/>
<path d="M0.146149 18.5007C0.0260578 19.6889 1.45198 22.972 3.00629 26.135C4.4526 29.0783 6.01068 31.9174 6.53709 32.8671C6.56957 32.9245 6.59751 32.975 6.62168 33.0181H3.43527C3.39751 32.9682 3.3605 32.9177 3.325 32.8671C-0.966352 26.9382 0.109131 18.7687 0.146149 18.5007Z" fill="#F0F0F0"/>
<path d="M72.9308 3.72165H1.66861C1.64118 3.72165 1.61488 3.71076 1.59548 3.69137C1.57608 3.67198 1.56519 3.64569 1.56519 3.61827C1.56519 3.59085 1.57608 3.56456 1.59548 3.54517C1.61488 3.52578 1.64118 3.51489 1.66861 3.51489H72.9308C72.9583 3.51489 72.9846 3.52578 73.004 3.54517C73.0234 3.56456 73.0342 3.59085 73.0342 3.61827C73.0342 3.64569 73.0234 3.67198 73.004 3.69137C72.9846 3.71076 72.9583 3.72165 72.9308 3.72165Z" fill="#CACACA"/>
<path d="M3.9966 2.27434C4.62494 2.27434 5.13431 1.76521 5.13431 1.13717C5.13431 0.509129 4.62494 0 3.9966 0C3.36826 0 2.85889 0.509129 2.85889 1.13717C2.85889 1.76521 3.36826 2.27434 3.9966 2.27434Z" fill="#3F3D56"/>
<path d="M7.92678 2.27434C8.55512 2.27434 9.06449 1.76521 9.06449 1.13717C9.06449 0.509129 8.55512 0 7.92678 0C7.29843 0 6.78906 0.509129 6.78906 1.13717C6.78906 1.76521 7.29843 2.27434 7.92678 2.27434Z" fill="#3F3D56"/>
<path d="M11.8572 2.27434C12.4855 2.27434 12.9949 1.76521 12.9949 1.13717C12.9949 0.509129 12.4855 0 11.8572 0C11.2289 0 10.7195 0.509129 10.7195 1.13717C10.7195 1.76521 11.2289 2.27434 11.8572 2.27434Z" fill="#3F3D56"/>
<path d="M70.5761 0.69562H67.7835C67.7563 0.695684 67.7294 0.690382 67.7042 0.68002C67.679 0.669658 67.6562 0.654438 67.6369 0.635233C67.6177 0.616027 67.6024 0.593213 67.592 0.568096C67.5815 0.54298 67.5762 0.516055 67.5762 0.488863C67.5762 0.46167 67.5815 0.434744 67.592 0.409627C67.6024 0.384511 67.6177 0.361696 67.6369 0.342491C67.6562 0.323285 67.679 0.308065 67.7042 0.297703C67.7294 0.287341 67.7563 0.282042 67.7835 0.282105H70.5761C70.6033 0.282042 70.6302 0.287341 70.6554 0.297703C70.6805 0.308065 70.7034 0.323285 70.7226 0.342491C70.7419 0.361696 70.7572 0.384511 70.7676 0.409627C70.778 0.434744 70.7834 0.46167 70.7834 0.488863C70.7834 0.516055 70.778 0.54298 70.7676 0.568096C70.7572 0.593213 70.7419 0.616027 70.7226 0.635233C70.7034 0.654438 70.6805 0.669658 70.6554 0.68002C70.6302 0.690382 70.6033 0.695684 70.5761 0.69562Z" fill="#3F3D56"/>
<path d="M70.5761 1.47089H67.7835C67.7563 1.47095 67.7294 1.46565 67.7042 1.45529C67.679 1.44493 67.6562 1.42971 67.6369 1.4105C67.6177 1.3913 67.6024 1.36848 67.592 1.34337C67.5815 1.31825 67.5762 1.29133 67.5762 1.26413C67.5762 1.23694 67.5815 1.21001 67.592 1.1849C67.6024 1.15978 67.6177 1.13697 67.6369 1.11776C67.6562 1.09856 67.679 1.08334 67.7042 1.07297C67.7294 1.06261 67.7563 1.05731 67.7835 1.05737H70.5761C70.6033 1.05731 70.6302 1.06261 70.6554 1.07297C70.6805 1.08334 70.7034 1.09856 70.7226 1.11776C70.7419 1.13697 70.7572 1.15978 70.7676 1.1849C70.778 1.21001 70.7834 1.23694 70.7834 1.26413C70.7834 1.29133 70.778 1.31825 70.7676 1.34337C70.7572 1.36848 70.7419 1.3913 70.7226 1.4105C70.7034 1.42971 70.6805 1.44493 70.6554 1.45529C70.6302 1.46565 70.6033 1.47095 70.5761 1.47089Z" fill="#3F3D56"/>
<path d="M70.5761 2.24628H67.7835C67.7563 2.24634 67.7294 2.24104 67.7042 2.23068C67.679 2.22032 67.6562 2.2051 67.6369 2.18589C67.6177 2.16669 67.6024 2.14387 67.592 2.11876C67.5815 2.09364 67.5762 2.06671 67.5762 2.03952C67.5762 2.01233 67.5815 1.9854 67.592 1.96029C67.6024 1.93517 67.6177 1.91236 67.6369 1.89315C67.6562 1.87394 67.679 1.85873 67.7042 1.84836C67.7294 1.838 67.7563 1.8327 67.7835 1.83276H70.5761C70.6033 1.8327 70.6302 1.838 70.6554 1.84836C70.6805 1.85873 70.7034 1.87394 70.7226 1.89315C70.7419 1.91236 70.7572 1.93517 70.7676 1.96029C70.778 1.9854 70.7834 2.01233 70.7834 2.03952C70.7834 2.06671 70.778 2.09364 70.7676 2.11876C70.7572 2.14387 70.7419 2.16669 70.7226 2.18589C70.7034 2.2051 70.6805 2.22032 70.6554 2.23068C70.6302 2.24104 70.6033 2.24634 70.5761 2.24628Z" fill="#3F3D56"/>
<path d="M69.2858 45.7877H42.4253C42.2158 45.7875 42.015 45.7042 41.8669 45.5562C41.7188 45.4081 41.6355 45.2074 41.6353 44.9981V10.0284C41.6355 9.81905 41.7188 9.61835 41.8669 9.47031C42.015 9.32228 42.2158 9.239 42.4253 9.23877H69.2858C69.4952 9.239 69.696 9.32227 69.8441 9.47031C69.9923 9.61834 70.0756 9.81905 70.0758 10.0284V44.9981C70.0756 45.2074 69.9923 45.4081 69.8441 45.5562C69.696 45.7042 69.4952 45.7875 69.2858 45.7877ZM42.4253 9.46438C42.2757 9.46456 42.1322 9.52404 42.0264 9.62978C41.9207 9.73551 41.8611 9.87887 41.861 10.0284V44.9981C41.8611 45.1476 41.9207 45.291 42.0264 45.3967C42.1322 45.5024 42.2757 45.5619 42.4253 45.5621H69.2858C69.4354 45.5619 69.5788 45.5024 69.6846 45.3967C69.7904 45.291 69.8499 45.1476 69.8501 44.9981V10.0284C69.8499 9.87887 69.7904 9.73551 69.6846 9.62978C69.5788 9.52404 69.4354 9.46456 69.2858 9.46438H42.4253Z" fill="#E6E6E6"/>
<path d="M61.0711 24.5575H49.6723C49.4629 24.5573 49.2621 24.474 49.114 24.326C48.9659 24.178 48.8826 23.9773 48.8823 23.7679V14.8563C48.8826 14.6469 48.9659 14.4462 49.114 14.2982C49.2621 14.1502 49.4629 14.0669 49.6723 14.0667H61.0711C61.2806 14.0669 61.4814 14.1502 61.6295 14.2982C61.7776 14.4462 61.8609 14.6469 61.8611 14.8563V23.7679C61.8609 23.9773 61.7776 24.178 61.6295 24.326C61.4814 24.474 61.2806 24.5573 61.0711 24.5575Z" fill="#E6E6E6"/>
<path d="M61.0472 39.4705H49.6484C49.439 39.4703 49.2382 39.387 49.0901 39.239C48.942 39.0909 48.8586 38.8902 48.8584 38.6809V29.7693C48.8586 29.5599 48.942 29.3592 49.0901 29.2112C49.2382 29.0631 49.439 28.9799 49.6484 28.9796H61.0472C61.2566 28.9799 61.4574 29.0631 61.6055 29.2112C61.7536 29.3592 61.8369 29.5599 61.8372 29.7693V38.6809C61.8369 38.8902 61.7536 39.0909 61.6055 39.239C61.4574 39.387 61.2566 39.4703 61.0472 39.4705ZM49.6484 29.2052C49.4988 29.2054 49.3554 29.2649 49.2496 29.3706C49.1438 29.4764 49.0843 29.6197 49.0841 29.7693V38.6809C49.0843 38.8304 49.1438 38.9738 49.2496 39.0795C49.3554 39.1852 49.4988 39.2447 49.6484 39.2449H61.0472C61.1968 39.2447 61.3402 39.1852 61.446 39.0795C61.5518 38.9738 61.6113 38.8304 61.6115 38.6809V29.7693C61.6113 29.6197 61.5518 29.4764 61.446 29.3706C61.3402 29.2649 61.1968 29.2054 61.0472 29.2052H49.6484Z" fill="#3F3D56"/>
<path d="M64.2071 41.9523H52.8083C52.5989 41.9521 52.3981 41.8688 52.25 41.7208C52.1019 41.5727 52.0186 41.372 52.0183 41.1627V32.2511C52.0186 32.0417 52.1019 31.841 52.25 31.693C52.3981 31.5449 52.5989 31.4617 52.8083 31.4614H64.2071C64.4165 31.4617 64.6173 31.5449 64.7654 31.693C64.9135 31.841 64.9969 32.0417 64.9971 32.2511V41.1627C64.9969 41.372 64.9135 41.5727 64.7654 41.7208C64.6173 41.8688 64.4165 41.9521 64.2071 41.9523Z" fill="#F48221"/>
<path d="M59.7866 39.343H54.0641C54.0569 39.3431 54.0498 39.3425 54.0427 39.3413L56.7492 34.6555C56.7657 34.6263 56.7897 34.602 56.8187 34.5851C56.8477 34.5682 56.8806 34.5593 56.9142 34.5593C56.9477 34.5593 56.9806 34.5682 57.0096 34.5851C57.0386 34.602 57.0626 34.6263 57.0791 34.6555L58.8955 37.8L58.9825 37.9505L59.7866 39.343Z" fill="white"/>
<path opacity="0.2" d="M59.7867 39.343H57.833L58.7921 37.9505L58.8612 37.8502L58.8956 37.8L58.9826 37.9505L59.7867 39.343Z" fill="black"/>
<path d="M62.9729 39.343H58.0234L58.9826 37.9505L59.0516 37.8502L60.3014 36.0356C60.3235 36.0078 60.3512 35.9851 60.3827 35.9687C60.4141 35.9524 60.4487 35.9429 60.4841 35.9408C60.5195 35.9386 60.5549 35.944 60.5881 35.9565C60.6213 35.9689 60.6515 35.9882 60.6768 36.0131C60.6833 36.0202 60.6893 36.0277 60.6948 36.0356L62.9729 39.343Z" fill="white"/>
<path d="M62.741 34.6373C63.2092 34.6373 63.5888 34.2579 63.5888 33.79C63.5888 33.322 63.2092 32.9426 62.741 32.9426C62.2729 32.9426 61.8933 33.322 61.8933 33.79C61.8933 34.2579 62.2729 34.6373 62.741 34.6373Z" fill="white"/>
<path d="M30.7596 45.7774H3.89915C3.6897 45.7772 3.48889 45.6939 3.34079 45.5458C3.19269 45.3978 3.10938 45.1971 3.10913 44.9878V36.0761C3.10938 35.8668 3.19269 35.6661 3.34079 35.518C3.48889 35.37 3.6897 35.2867 3.89915 35.2865H30.7596C30.9691 35.2868 31.1699 35.37 31.318 35.5181C31.4661 35.6661 31.5494 35.8668 31.5497 36.0761V44.9878C31.5494 45.1971 31.4661 45.3978 31.318 45.5458C31.1699 45.6939 30.9691 45.7771 30.7596 45.7774Z" fill="#E6E6E6"/>
<path d="M30.6466 33.0304H3.78611C3.57666 33.0301 3.37586 32.9469 3.22775 32.7988C3.07965 32.6508 2.99634 32.4501 2.99609 32.2407V10.4693C2.99633 10.26 3.07964 10.0593 3.22774 9.91123C3.37585 9.76319 3.57666 9.67992 3.78611 9.67969H30.6466C30.856 9.67993 31.0568 9.7632 31.2049 9.91124C31.353 10.0593 31.4364 10.26 31.4366 10.4693V32.2407C31.4363 32.4501 31.353 32.6508 31.2049 32.7988C31.0568 32.9469 30.856 33.0301 30.6466 33.0304ZM3.78611 9.9053C3.6365 9.90547 3.49307 9.96495 3.38728 10.0707C3.2815 10.1764 3.22199 10.3198 3.22181 10.4693V32.2407C3.22199 32.3903 3.2815 32.5336 3.38728 32.6394C3.49307 32.7451 3.6365 32.8046 3.78611 32.8048H30.6466C30.7962 32.8046 30.9396 32.7451 31.0454 32.6394C31.1512 32.5336 31.2107 32.3903 31.2109 32.2407V10.4693C31.2107 10.3198 31.1512 10.1764 31.0454 10.0707C30.9396 9.96495 30.7962 9.90547 30.6466 9.9053H3.78611Z" fill="#3F3D56"/>
<path d="M35.0482 36.9786H8.18772C7.97827 36.9784 7.77748 36.8951 7.62938 36.7471C7.48127 36.599 7.39796 36.3983 7.39771 36.189V14.4176C7.39795 14.2082 7.48126 14.0075 7.62936 13.8595C7.77747 13.7114 7.97827 13.6282 8.18772 13.6279H35.0482C35.2577 13.6282 35.4585 13.7114 35.6066 13.8595C35.7547 14.0075 35.838 14.2082 35.8382 14.4176V36.189C35.838 36.3983 35.7547 36.599 35.6066 36.7471C35.4585 36.8951 35.2577 36.9784 35.0482 36.9786Z" fill="#F48221"/>
<path d="M24.6825 31.6204H10.9695C10.9523 31.6206 10.9351 31.6192 10.9182 31.6163L17.4038 20.3876C17.4434 20.3177 17.5009 20.2595 17.5703 20.219C17.6397 20.1786 17.7187 20.1572 17.7991 20.1572C17.8795 20.1572 17.9584 20.1786 18.0278 20.219C18.0973 20.2595 18.1547 20.3177 18.1943 20.3876L22.547 27.9229L22.7555 28.2835L24.6825 31.6204Z" fill="white"/>
<path opacity="0.2" d="M24.6825 31.6204H20.0005L22.2989 28.2835L22.4643 28.0431L22.547 27.923L22.7556 28.2835L24.6825 31.6204Z" fill="black"/>
<path d="M32.3177 31.6204H20.457L22.7554 28.2835L22.9208 28.0431L25.9158 23.6946C25.9687 23.6281 26.0351 23.5736 26.1105 23.5344C26.1859 23.4953 26.2687 23.4725 26.3536 23.4674C26.4384 23.4623 26.5233 23.4751 26.6029 23.505C26.6824 23.5349 26.7548 23.5812 26.8153 23.6408C26.8308 23.6578 26.8452 23.6758 26.8584 23.6946L32.3177 31.6204Z" fill="white"/>
<path d="M31.5044 20.1142C32.6263 20.1142 33.5358 19.2051 33.5358 18.0837C33.5358 16.9623 32.6263 16.0532 31.5044 16.0532C30.3824 16.0532 29.4729 16.9623 29.4729 18.0837C29.4729 19.2051 30.3824 20.1142 31.5044 20.1142Z" fill="white"/>
<path d="M40.7758 35.8424C40.9589 35.7418 41.1713 35.7081 41.3767 35.7471L44.5954 32.7407L44.0611 30.0599L46.1744 30.1745L46.3633 33.4282L42.1051 36.7428C42.0864 36.8963 42.0285 37.0423 41.9371 37.167C41.8457 37.2917 41.7237 37.3908 41.583 37.4548C41.4422 37.5188 41.2873 37.5456 41.1332 37.5326C40.9791 37.5196 40.8309 37.4672 40.7029 37.3805C40.5748 37.2938 40.4713 37.1757 40.402 37.0374C40.3328 36.8992 40.3003 36.7455 40.3077 36.5911C40.315 36.4366 40.3619 36.2867 40.4438 36.1556C40.5258 36.0245 40.6401 35.9167 40.7758 35.8424L40.7758 35.8424Z" fill="#FFB8B8"/>
<path d="M37.2215 58.4722H35.8379L35.1797 53.1378H37.2218L37.2215 58.4722Z" fill="#FFB6B6"/>
<path d="M37.5744 59.8128L33.113 59.8127V59.7563C33.1131 59.296 33.296 58.8545 33.6217 58.529C33.9473 58.2035 34.389 58.0207 34.8495 58.0206H34.8497L37.5745 58.0207L37.5744 59.8128Z" fill="#2F2E41"/>
<path d="M47.6046 58.4722H46.2209L45.5627 53.1378H47.6048L47.6046 58.4722Z" fill="#FFB6B6"/>
<path d="M47.9575 59.8128L43.4961 59.8127V59.7563C43.4961 59.296 43.6791 58.8545 44.0047 58.529C44.3304 58.2035 44.7721 58.0207 45.2326 58.0206H45.2327L47.9576 58.0207L47.9575 59.8128Z" fill="#2F2E41"/>
<path d="M45.081 28.4813C44.914 28.2705 44.677 28.1263 44.413 28.0747C44.1489 28.0232 43.8751 28.0677 43.641 28.2003C43.4096 28.3314 43.232 28.54 43.1396 28.7893C43.0472 29.0386 43.0459 29.3125 43.136 29.5626L43.8145 31.4464L46.5934 30.3909L45.081 28.4813Z" fill="#F48221"/>
<path d="M44.8316 36.8004C44.7051 36.7056 44.5691 36.6241 44.4259 36.5573L39.3681 37.335L39.4793 40.5015C37.033 45.1166 35.4154 50.3816 34.5327 56.2231L37.7008 56.9452C39.1183 51.4563 40.7284 46.5307 42.7585 42.8348L44.8984 56.8117L48.5388 56.723C48.0594 48.5065 47.6894 38.9276 44.8316 36.8004Z" fill="#2F2E41"/>
<path d="M41.0566 27.6854C42.1453 27.6854 43.028 26.8032 43.028 25.7149C43.028 24.6267 42.1453 23.7445 41.0566 23.7445C39.9678 23.7445 39.0852 24.6267 39.0852 25.7149C39.0852 26.8032 39.9678 27.6854 41.0566 27.6854Z" fill="#FFB8B8"/>
<path d="M45.3918 30.7784C45.482 30.2335 45.3934 29.674 45.1392 29.1836C44.8849 28.6932 44.4788 28.2982 43.9813 28.0576L41.7582 28.1687C41.3963 28.2624 41.0605 28.4374 40.7765 28.6803C40.4924 28.9233 40.2676 29.2278 40.1191 29.5707C39.1554 31.8249 39.0182 34.707 39.4238 38.0016L44.6896 36.7496C43.9674 35.1243 44.5479 33.0016 45.3918 30.7784Z" fill="#F48221"/>
<path d="M38.6121 25.2344V25.2344C38.6121 24.9677 38.6646 24.7037 38.7667 24.4574C38.8688 24.211 39.0184 23.9872 39.2071 23.7986C39.3957 23.6101 39.6196 23.4605 39.8661 23.3585C40.1126 23.2564 40.3768 23.2039 40.6435 23.2039H40.7601C41.128 22.9115 41.5842 22.7524 42.0543 22.7527C42.608 22.7527 43.1391 22.9726 43.5306 23.3639C43.9222 23.7553 44.1422 24.2861 44.1422 24.8396V27.4905C42.7922 27.4569 41.2633 27.7229 39.6278 28.1673C40.04 27.026 40.314 25.9767 40.1268 25.2344H38.6121Z" fill="#2F2E41"/>
<path d="M34.4363 34.3717C34.6453 34.3714 34.8478 34.4438 35.0091 34.5766L39.2772 33.4861L40.0975 30.8785L41.8957 31.994L40.4971 34.9382L35.1692 35.7998C35.079 35.9253 34.9581 36.0257 34.818 36.0911C34.6778 36.1565 34.5233 36.1849 34.369 36.1734C34.2148 36.1619 34.0661 36.111 33.9372 36.0256C33.8083 35.9402 33.7035 35.8231 33.6329 35.6855C33.5624 35.548 33.5283 35.3946 33.5341 35.2401C33.5398 35.0856 33.5852 34.9352 33.6659 34.8033C33.7465 34.6714 33.8597 34.5625 33.9947 34.4869C34.1296 34.4113 34.2816 34.3716 34.4363 34.3717Z" fill="#FFB8B8"/>
<path d="M42.758 30.0885C42.8352 29.8309 42.8176 29.5541 42.7084 29.3083C42.5993 29.0625 42.4058 28.8638 42.1629 28.7481C41.9228 28.6337 41.65 28.6078 41.3927 28.6751C41.1353 28.7423 40.91 28.8982 40.7566 29.1154L39.6013 30.7509L42.0597 32.4218L42.758 30.0885Z" fill="#F48221"/>
<path d="M53.7364 60H26.1655C26.1479 60 26.1303 59.9966 26.114 59.9898C26.0976 59.9831 26.0828 59.9732 26.0703 59.9608C26.0577 59.9483 26.0478 59.9335 26.041 59.9171C26.0343 59.9008 26.0308 59.8833 26.0308 59.8656C26.0308 59.848 26.0343 59.8305 26.041 59.8142C26.0478 59.7978 26.0577 59.783 26.0703 59.7705C26.0828 59.7581 26.0976 59.7482 26.114 59.7414C26.1303 59.7347 26.1479 59.7313 26.1655 59.7313H53.7364C53.754 59.7313 53.7716 59.7347 53.7879 59.7414C53.8042 59.7482 53.8191 59.7581 53.8316 59.7705C53.8441 59.783 53.8541 59.7978 53.8609 59.8142C53.8676 59.8305 53.8711 59.848 53.8711 59.8656C53.8711 59.8833 53.8676 59.9008 53.8609 59.9171C53.8541 59.9335 53.8441 59.9483 53.8316 59.9608C53.8191 59.9732 53.8042 59.9831 53.7879 59.9898C53.7716 59.9966 53.754 60 53.7364 60Z" fill="#CACACA"/>
</g>
<defs>
<clipPath id="clip0_230_3623">
<rect width="73.5" height="60" fill="white"/>
</clipPath>
</defs>
</svg>
