<svg width="98" height="60" viewBox="0 0 98 60" fill="none" xmlns="http://www.w3.org/2000/svg">
<g clip-path="url(#clip0_230_3485)">
<path d="M84.4597 47.0481C84.438 47.0207 84.4166 46.9933 84.3953 46.9659C84.374 46.9385 84.3527 46.911 84.3316 46.8834C84.3105 46.8558 84.2895 46.8281 84.2686 46.8004C84.2476 46.7726 84.2268 46.7448 84.2061 46.7167C84.1714 45.9127 84.1709 45.1158 84.2046 44.3259C84.2376 43.5417 84.3042 42.7669 84.4045 42.0015C84.5035 41.2419 84.6348 40.494 84.7982 39.7578C84.9603 39.0273 85.1536 38.3105 85.3779 37.6075C85.4035 37.5265 85.4295 37.4458 85.456 37.3654C85.4825 37.285 85.5094 37.2051 85.5369 37.1257C85.5643 37.046 85.5921 36.9666 85.6204 36.8876C85.6487 36.8086 85.6774 36.7299 85.7065 36.6514C85.9226 36.0644 86.1604 35.4918 86.42 34.9336C86.6778 34.3792 86.9562 33.8402 87.2553 33.3165C87.552 32.7965 87.8684 32.2925 88.2044 31.8045C88.5381 31.3202 88.8903 30.8528 89.261 30.4023L89.3194 30.3316L89.3781 30.2613L89.4369 30.1914L89.4959 30.1219L89.5384 30.072L89.5813 30.0222C89.5957 30.0057 89.6102 29.9893 89.6247 29.9729C89.6392 29.9565 89.6539 29.9403 89.6688 29.9243L89.704 29.9051L89.739 29.8861L89.7739 29.8671L89.8086 29.8481L89.8108 29.8474L89.813 29.8464L89.8152 29.8454L89.8174 29.8446L89.8314 29.8369L89.8452 29.8292L89.8588 29.8215L89.8721 29.8138L89.9326 29.7814L89.9929 29.7495L90.0533 29.7178L90.1131 29.6857L90.0674 29.6629L89.9527 29.6061L89.9535 29.6056C89.9634 29.6098 89.9732 29.6142 89.9828 29.6189C89.9925 29.6235 90.0022 29.628 90.0121 29.6324C90.0219 29.6369 90.0316 29.6415 90.0412 29.646C90.0508 29.6506 90.0604 29.6552 90.0702 29.66L90.0813 29.6647L90.0925 29.6695L90.1039 29.6743C90.1077 29.6758 90.1113 29.6776 90.1149 29.6797C90.118 29.6814 90.1213 29.6828 90.1247 29.6839L90.1346 29.6881L90.1445 29.6923L90.1543 29.6965C90.5722 29.8873 90.9912 30.081 91.4047 30.284C91.8182 30.4871 92.2253 30.6988 92.6215 30.9266C93.0166 31.1526 93.3994 31.3992 93.7685 31.6653C94.1366 31.93 94.4849 32.221 94.8108 32.5358C95.1548 32.8705 95.4624 33.2404 95.7286 33.6393C95.9919 34.0311 96.2084 34.4522 96.3737 34.8941C96.5328 35.3147 96.6276 35.7567 96.6549 36.2053C96.6813 36.6368 96.6203 37.0692 96.4757 37.4768C96.4562 37.5299 96.4351 37.5823 96.4125 37.634C96.3899 37.6857 96.3658 37.7366 96.3401 37.7867C96.3145 37.8367 96.2874 37.886 96.2587 37.9343C96.2301 37.9826 96.2 38.0301 96.1685 38.0766C96.1553 38.0961 96.1419 38.1153 96.1282 38.1344C96.1145 38.1534 96.1007 38.1723 96.0866 38.1911C96.0725 38.2098 96.0583 38.2284 96.0438 38.247C96.0294 38.2656 96.0148 38.284 96.0001 38.3023C95.7264 38.645 95.3786 38.9217 94.9826 39.1118C94.5845 39.3014 94.1518 39.4083 93.7109 39.426C93.2476 39.4453 92.7847 39.3784 92.346 39.2286C91.8754 39.0686 91.4382 38.8243 91.0558 38.5077C90.9236 38.3989 90.7984 38.282 90.6808 38.1578C90.5642 38.0346 90.4555 37.9044 90.3552 37.7679C90.2557 37.6325 90.1649 37.491 90.0833 37.3442C90.0024 37.1985 89.931 37.0478 89.8696 36.8929C89.8408 37.374 89.9157 37.8557 90.0895 38.3055C90.2727 38.7784 90.5219 39.2233 90.8296 39.627C91.1546 40.0569 91.5152 40.4589 91.9076 40.8288C92.3026 41.2062 92.7224 41.5599 93.1368 41.8857C93.5513 42.2114 93.9804 42.5446 94.3959 42.8921C94.811 43.2338 95.2061 43.5988 95.5793 43.9853C95.9413 44.3588 96.2615 44.7703 96.5342 45.2126C96.8022 45.6493 96.9959 46.127 97.1075 46.6265C97.2271 47.1707 97.221 47.7348 97.0899 48.2762C97.0261 48.5397 96.9353 48.7959 96.8189 49.0408C96.7015 49.2877 96.5609 49.5229 96.3988 49.7434L96.3837 49.7635L96.3685 49.7836L96.353 49.8036L96.3373 49.8235C95.9419 50.3383 95.4456 50.7676 94.8785 51.0853C94.593 51.2451 94.2922 51.376 93.9804 51.4759C93.6613 51.5782 93.3327 51.6487 92.9996 51.6862C92.3658 51.7444 91.7269 51.7079 91.1039 51.5781C90.4625 51.4443 89.8389 51.2364 89.2457 50.9587C88.6325 50.6728 88.0462 50.3325 87.4941 49.942C86.9372 49.5494 86.4099 49.1166 85.9165 48.6471C85.7854 48.5226 85.6567 48.3959 85.5303 48.2668C85.4039 48.1378 85.28 48.0066 85.1585 47.8733C85.0368 47.7399 84.9177 47.6044 84.8014 47.4669C84.6851 47.3295 84.5712 47.1899 84.4597 47.0481Z" fill="#F2F2F2"/>
<path d="M94.649 37.7323C94.2574 37.5298 93.8808 37.2996 93.5221 37.0434C92.8057 36.5319 92.1657 35.9218 91.6212 35.2313C91.3512 34.8887 91.1066 34.527 90.8895 34.1489C90.7083 33.8295 90.5474 33.4991 90.4079 33.1596C90.2717 32.8284 90.1571 32.4887 90.065 32.1427C89.975 31.8048 89.908 31.4612 89.8643 31.1143C89.8214 30.7745 89.8027 30.4321 89.808 30.0897C89.8085 30.0704 89.809 30.0512 89.8094 30.0322C89.8098 30.0131 89.8102 29.9939 89.8107 29.9746C89.8112 29.9553 89.812 29.9362 89.813 29.9174L89.8158 29.8605C89.7994 29.8734 89.7829 29.8865 89.7666 29.8997L89.7176 29.9394L89.6688 29.9794L89.6202 30.0195L89.5889 30.0453L89.5576 30.0712L89.5264 30.0974L89.4956 30.1235L89.5381 30.0737L89.5817 30.0223C89.5961 30.0058 89.6106 29.9894 89.6251 29.973C89.6396 29.9566 89.6543 29.9404 89.6693 29.9244L89.7044 29.9052L89.7395 29.8861L89.7736 29.8672L89.8083 29.8483L89.8105 29.8476L89.8127 29.8465L89.8149 29.8455L89.8171 29.8447L89.8311 29.837L89.845 29.8294L89.8586 29.8217L89.8718 29.8139L89.9324 29.7816L89.9927 29.7497L90.053 29.718L90.1134 29.6861L90.0662 29.6628L89.9515 29.6058L89.9523 29.6053C89.9622 29.6095 89.972 29.614 89.9816 29.6186C89.9913 29.6233 90.001 29.6278 90.0109 29.6321C90.0207 29.6367 90.0304 29.6413 90.04 29.6458C90.0496 29.6503 90.0592 29.655 90.069 29.6598L90.0801 29.6645L90.0913 29.6693L90.1027 29.6741C90.1064 29.6756 90.1101 29.6774 90.1136 29.6794L90.1125 29.6976L90.1112 29.7146L90.1102 29.7315L90.1093 29.7487C90.067 30.3254 90.0972 30.9052 90.1991 31.4745C90.3039 32.0606 90.476 32.6327 90.7119 33.1796C90.9557 33.7458 91.2605 34.2838 91.6208 34.7844C91.9931 35.3022 92.4197 35.7791 92.8934 36.207C93.3702 36.6317 93.8902 37.0056 94.4451 37.3225C94.7192 37.4789 95.0013 37.6207 95.2905 37.7474C95.5772 37.8728 95.8705 37.9825 96.1691 38.0762C96.1559 38.0957 96.1425 38.1149 96.1288 38.134C96.1151 38.153 96.1013 38.1719 96.0872 38.1907C96.0731 38.2094 96.0589 38.228 96.0444 38.2466C96.03 38.2652 96.0154 38.2836 96.0007 38.3019C95.8855 38.2639 95.7709 38.2235 95.657 38.1806C95.543 38.1378 95.4296 38.0926 95.3168 38.045C95.204 37.9975 95.092 37.9476 94.9808 37.8954C94.8695 37.8431 94.7589 37.7888 94.649 37.7323Z" fill="white"/>
<path d="M86.896 42.043C86.7677 41.8522 86.6467 41.658 86.5328 41.4602C86.419 41.2624 86.3126 41.0618 86.2136 40.8584C86.1147 40.655 86.0233 40.4491 85.9395 40.2406C85.8557 40.0321 85.7798 39.8218 85.7118 39.6096C85.677 39.4971 85.645 39.3842 85.6156 39.2708C85.5863 39.1575 85.5597 39.044 85.5358 38.9304C85.512 38.8167 85.4909 38.7027 85.4724 38.5885C85.4539 38.4744 85.4383 38.3603 85.4256 38.2463C85.4192 38.1932 85.4134 38.1399 85.4082 38.0866C85.4031 38.0333 85.3985 37.98 85.3945 37.9267C85.3905 37.8734 85.3872 37.8202 85.3844 37.767C85.3816 37.7138 85.3794 37.6607 85.3777 37.6077C85.4033 37.5266 85.4293 37.4459 85.4558 37.3655C85.4822 37.2851 85.5092 37.205 85.5365 37.1253C85.5639 37.0456 85.5917 36.9662 85.62 36.8872C85.6483 36.8082 85.677 36.7294 85.7063 36.651C85.6999 36.7167 85.6945 36.7826 85.69 36.8486C85.6854 36.9147 85.6818 36.9809 85.6792 37.0473C85.6765 37.1138 85.6748 37.1804 85.674 37.2472C85.6732 37.314 85.6733 37.3809 85.6744 37.4479C85.6743 37.4844 85.6746 37.5209 85.6753 37.5574C85.6761 37.594 85.6771 37.6305 85.6783 37.667C85.6796 37.7035 85.6812 37.7401 85.6831 37.7766C85.685 37.8131 85.6872 37.8497 85.6896 37.8862C85.7178 38.2961 85.7824 38.7027 85.8825 39.1013C85.984 39.5047 86.1163 39.8997 86.2783 40.2829C86.4434 40.6736 86.6338 41.0531 86.8484 41.4191C87.0665 41.7915 87.3051 42.1517 87.5629 42.498C87.8405 42.8719 88.1339 43.2359 88.443 43.5901C88.7522 43.9443 89.0732 44.2887 89.4058 44.6235C89.7388 44.958 90.0815 45.2821 90.434 45.5959C90.7865 45.9097 91.1449 46.2126 91.5092 46.5047C91.8822 46.8046 92.2628 47.0931 92.6509 47.3702C93.0391 47.6473 93.4335 47.9123 93.8343 48.1651C94.2349 48.4178 94.6415 48.6583 95.0542 48.8864C95.4669 49.1145 95.8842 49.3295 96.3062 49.5316C96.3256 49.541 96.343 49.5539 96.3578 49.5696C96.3722 49.5849 96.3839 49.6026 96.3923 49.6219C96.4006 49.641 96.4056 49.6613 96.4069 49.6821C96.4082 49.7029 96.4054 49.7239 96.3987 49.7437C96.3966 49.7523 96.3936 49.7606 96.3897 49.7686C96.386 49.7763 96.3815 49.7837 96.3762 49.7905C96.371 49.7973 96.3652 49.8035 96.3587 49.8091C96.3522 49.8146 96.3451 49.8193 96.3376 49.8234C96.3297 49.827 96.3214 49.8295 96.3128 49.8311C96.3043 49.8326 96.2955 49.833 96.2868 49.8324C96.2779 49.8318 96.2692 49.8302 96.2607 49.8276C96.2519 49.825 96.2434 49.8213 96.2354 49.8168C96.1832 49.7919 96.1311 49.7669 96.079 49.7418C96.0269 49.7167 95.9749 49.6914 95.9231 49.666C95.8711 49.6405 95.8193 49.6149 95.7675 49.589C95.7158 49.5631 95.6641 49.5368 95.6124 49.5101C95.1823 49.29 94.7579 49.0567 94.3393 48.8103C93.9207 48.5638 93.5083 48.3045 93.1023 48.0323C92.6963 47.7602 92.2978 47.4758 91.9065 47.1793C91.5153 46.8827 91.1323 46.5743 90.7576 46.2542C90.3956 45.946 90.0383 45.6273 89.6895 45.2978C89.3407 44.9684 89.0006 44.6283 88.6733 44.2774C88.3459 43.9265 88.0315 43.565 87.7337 43.1925C87.4359 42.82 87.1556 42.437 86.896 42.043Z" fill="white"/>
<path d="M94.9985 11.4257L94.6904 11.4656L96.7561 3.74231C96.9083 3.22659 96.9331 2.68186 96.8283 2.15455C96.7375 1.72369 96.5127 1.33228 96.1859 1.03586C95.8436 0.739481 95.4241 0.545557 94.976 0.476462C94.4301 0.39225 93.8728 0.417105 93.3367 0.549579L79.2975 3.7345C78.8075 3.85293 78.3385 4.04514 77.9067 4.30449C77.437 4.58269 77.0002 4.91258 76.6046 5.28795C76.1975 5.67072 75.8321 6.09521 75.5144 6.55437C75.2041 6.9988 74.9511 7.48034 74.7615 7.98766L60.0723 48.2347C59.8281 48.8965 59.6695 49.5866 59.6002 50.2882C59.5359 50.9112 59.5662 51.5402 59.6902 52.1541C59.7937 52.6876 60.0098 53.193 60.3242 53.6369C60.6126 54.0406 61.0188 54.3458 61.4876 54.5111L76.3209 59.598C76.9799 59.8215 77.6872 59.8635 78.3681 59.7194C79.096 59.5615 79.7806 59.2474 80.3743 58.7992C81.0409 58.3002 81.6142 57.6882 82.0678 56.9912C82.5702 56.2254 82.9457 55.384 83.1797 54.4994L93.1243 17.3193L93.4364 17.2944L94.9985 11.4257Z" fill="#2F2E41"/>
<path d="M93.9252 10.9981L93.6172 11.038L95.6829 3.3147C95.8351 2.79898 95.8599 2.25425 95.7551 1.72694C95.6642 1.29607 95.4394 0.904664 95.1126 0.608246C94.7703 0.311869 94.3509 0.117945 93.9027 0.0488492C93.3568 -0.0353622 92.7996 -0.0105077 92.2634 0.121967L78.2243 3.30689C77.7342 3.42532 77.2652 3.61753 76.8334 3.87687C76.3638 4.15507 75.927 4.48496 75.5313 4.86034C75.1242 5.24311 74.7588 5.6676 74.4411 6.12676C74.1308 6.57119 73.8779 7.05273 73.6883 7.56005L58.9991 47.8071C58.7549 48.4689 58.5962 49.1589 58.5269 49.8606C58.4626 50.4836 58.493 51.1126 58.617 51.7265C58.7204 52.26 58.9365 52.7654 59.251 53.2093C59.5393 53.613 59.9456 53.9182 60.4144 54.0835L75.2477 59.1704C75.9066 59.3939 76.6139 59.4359 77.2948 59.2918C78.0227 59.1339 78.7073 58.8198 79.301 58.3715C79.9677 57.8726 80.5409 57.2606 80.9946 56.5636C81.497 55.7978 81.8724 54.9564 82.1064 54.0718L92.0511 16.8917L92.3631 16.8668L93.9252 10.9981Z" fill="#3F3D56"/>
<path d="M92.1394 1.1297L90.0757 1.58007C90.0982 1.75793 90.0804 1.93857 90.0236 2.10868C89.9593 2.30765 89.8661 2.49616 89.7469 2.66818C89.4785 3.05871 89.1204 3.37973 88.7023 3.6045C88.6522 3.63101 88.6024 3.65549 88.5526 3.67794C88.5029 3.70039 88.4532 3.72077 88.4035 3.73909C88.354 3.7574 88.3048 3.77358 88.2559 3.78762C88.2071 3.80166 88.1588 3.81349 88.111 3.82311L80.0424 5.45064C79.8927 5.48529 79.7368 5.48353 79.5879 5.4455C79.4681 5.41346 79.3623 5.34252 79.2875 5.24389C79.212 5.138 79.1694 5.01237 79.1649 4.88258C79.1587 4.71702 79.185 4.55184 79.2423 4.3963C79.2566 4.35432 79.2729 4.31206 79.2912 4.26952C79.3095 4.22697 79.3295 4.18443 79.3511 4.14188C79.3726 4.09912 79.396 4.05658 79.4214 4.01424C79.4468 3.97191 79.4736 3.92962 79.5018 3.88736L77.974 4.22077C77.606 4.30673 77.2536 4.4488 76.9292 4.64195C76.5747 4.84997 76.2451 5.09742 75.9467 5.37955C75.639 5.66779 75.3631 5.98787 75.1236 6.33436C74.8901 6.66919 74.7002 7.03224 74.5586 7.41478L59.897 48.0116C59.7147 48.5105 59.5976 49.0306 59.5487 49.5593C59.5035 50.0259 59.5302 50.4967 59.6278 50.9554C59.7091 51.3518 59.8751 51.7261 60.1147 52.0528C60.3342 52.3492 60.6403 52.5708 60.9911 52.6872L75.9335 57.5231C76.4265 57.6806 76.9528 57.7041 77.4579 57.5912C77.9959 57.4685 78.5013 57.2323 78.9399 56.8986C79.4305 56.5285 79.8528 56.0764 80.1881 55.5624C80.5591 54.9977 80.8376 54.3779 81.013 53.7261L94.6657 3.5393C94.7802 3.15619 94.8015 2.7514 94.7276 2.3585C94.6634 2.03651 94.5 1.74252 94.26 1.51753C94.0086 1.29259 93.698 1.14352 93.3647 1.08769C92.9576 1.01959 92.5408 1.03387 92.1394 1.1297Z" fill="white"/>
<path d="M84.1261 20.3568H54.4016V10.3228H84.1261V20.3568Z" fill="white"/>
<path d="M75.4357 23.8983H46.3037V37.9657H75.4357V23.8983Z" fill="white"/>
<path d="M51.0364 30.6535C52.2002 30.6535 53.1437 29.7137 53.1437 28.5543C53.1437 27.395 52.2002 26.4552 51.0364 26.4552C49.8726 26.4552 48.9292 27.395 48.9292 28.5543C48.9292 29.7137 49.8726 30.6535 51.0364 30.6535Z" fill="#F48221"/>
<path d="M55.9032 27.1549C55.8101 27.1549 55.7207 27.1918 55.6549 27.2574C55.589 27.323 55.552 27.412 55.552 27.5048C55.552 27.5976 55.589 27.6865 55.6549 27.7522C55.7207 27.8178 55.8101 27.8546 55.9032 27.8546H72.46C72.553 27.8544 72.6421 27.8174 72.7078 27.7518C72.7734 27.6863 72.8103 27.5974 72.8103 27.5048C72.8103 27.4121 72.7734 27.3233 72.7078 27.2577C72.6421 27.1921 72.553 27.1551 72.46 27.1549H55.9032Z" fill="#E6E6E6"/>
<path d="M55.9032 29.254C55.857 29.2539 55.8113 29.2628 55.7686 29.2802C55.7259 29.2977 55.6871 29.3234 55.6543 29.3558C55.6216 29.3882 55.5956 29.4268 55.5778 29.4692C55.5601 29.5117 55.5509 29.5572 55.5508 29.6031C55.5507 29.6491 55.5597 29.6947 55.5773 29.7372C55.5949 29.7797 55.6207 29.8183 55.6533 29.8509C55.6859 29.8835 55.7246 29.9093 55.7672 29.927C55.8098 29.9446 55.8555 29.9537 55.9017 29.9537H63.0276C63.0737 29.9537 63.1194 29.9447 63.162 29.9271C63.2046 29.9095 63.2433 29.8838 63.2759 29.8513C63.3086 29.8188 63.3344 29.7802 63.3521 29.7378C63.3697 29.6953 63.3788 29.6498 63.3788 29.6039C63.3788 29.5579 63.3697 29.5124 63.3521 29.47C63.3344 29.4276 63.3086 29.389 63.2759 29.3565C63.2433 29.324 63.2046 29.2982 63.162 29.2807C63.1194 29.2631 63.0737 29.254 63.0276 29.254H55.9032Z" fill="#E6E6E6"/>
<path d="M49.4201 32.61C49.1529 32.61 48.9355 32.7669 48.9355 32.9598C48.9355 33.1527 49.1529 33.3097 49.4201 33.3097H72.2634C72.5305 33.3097 72.7479 33.1527 72.7479 32.9598C72.7479 32.767 72.5305 32.61 72.2634 32.61H49.4201Z" fill="#E6E6E6"/>
<path d="M49.4201 34.7091C49.1529 34.7091 48.9355 34.8661 48.9355 35.059C48.9355 35.2519 49.1529 35.4088 49.4201 35.4088H67.0052C67.2723 35.4088 67.4897 35.2518 67.4897 35.059C67.4897 34.8661 67.2723 34.7091 67.0052 34.7091H49.4201Z" fill="#E6E6E6"/>
<path d="M75.7321 38.2608H46.0076V23.6031H75.7321V38.2608ZM46.6001 37.6705H75.1395V24.1934H46.6001V37.6705Z" fill="#E6E6E6"/>
<path d="M59.4305 17.3731C60.5943 17.3731 61.5377 16.4333 61.5377 15.2739C61.5377 14.1146 60.5943 13.1748 59.4305 13.1748C58.2667 13.1748 57.3232 14.1146 57.3232 15.2739C57.3232 16.4333 58.2667 17.3731 59.4305 17.3731Z" fill="#F48221"/>
<path d="M64.297 13.8745C64.2039 13.8745 64.1145 13.9114 64.0487 13.977C63.9828 14.0426 63.9458 14.1316 63.9458 14.2244C63.9458 14.3172 63.9828 14.4061 64.0487 14.4718C64.1145 14.5374 64.2039 14.5742 64.297 14.5742H80.8538C80.9468 14.574 81.0359 14.537 81.1016 14.4714C81.1672 14.4059 81.2041 14.317 81.2041 14.2244C81.2041 14.1317 81.1672 14.0429 81.1016 13.9773C81.0359 13.9117 80.9468 13.8747 80.8538 13.8745H64.297Z" fill="#E6E6E6"/>
<path d="M64.2972 15.9736C64.2511 15.9735 64.2053 15.9824 64.1626 15.9999C64.1199 16.0173 64.0811 16.043 64.0484 16.0754C64.0156 16.1078 63.9896 16.1464 63.9719 16.1888C63.9541 16.2313 63.9449 16.2768 63.9448 16.3228C63.9447 16.3687 63.9537 16.4143 63.9713 16.4568C63.9889 16.4993 64.0147 16.538 64.0473 16.5705C64.0799 16.6031 64.1186 16.6289 64.1613 16.6466C64.2039 16.6642 64.2496 16.6733 64.2957 16.6733H77.3237C77.4169 16.6733 77.5062 16.6365 77.5721 16.5709C77.6379 16.5053 77.6749 16.4163 77.6749 16.3235C77.6749 16.2307 77.6379 16.1417 77.5721 16.0761C77.5062 16.0105 77.4169 15.9736 77.3237 15.9736H64.2972Z" fill="#E6E6E6"/>
<path d="M84.1261 20.3568H54.4016V10.3228H84.1261V20.3568ZM54.9941 19.7666H83.5336V10.913H54.9941V19.7666Z" fill="#E6E6E6"/>
<path d="M25.7205 58.579H27.2189L27.9318 52.8215L25.7202 52.8216L25.7205 58.579Z" fill="#FFB6B6"/>
<path d="M30.1089 59.9648L25.3996 59.9651L25.3996 58.1526L28.5113 58.1524C28.935 58.1524 29.3413 58.32 29.6409 58.6185C29.9405 58.9169 30.1089 59.3217 30.1089 59.7437L30.1089 59.9648Z" fill="#2F2E41"/>
<path d="M10.7375 56.6445L12.0506 57.3636L15.4598 52.6606L13.5219 51.5994L10.7375 56.6445Z" fill="#FFB6B6"/>
<path d="M13.9126 59.965L9.78589 57.7049L10.6625 56.1166L13.3893 57.61C13.7605 57.8133 14.0355 58.1553 14.1537 58.5606C14.2719 58.9659 14.2237 59.4014 14.0195 59.7712L13.9126 59.965Z" fill="#2F2E41"/>
<path d="M25.6507 55.3833C25.5172 55.3832 25.3883 55.3347 25.288 55.2469C25.1878 55.159 25.123 55.0378 25.1058 54.9059L23.2319 40.5212C23.2236 40.4576 23.1954 40.3982 23.1512 40.3515C23.107 40.3048 23.0491 40.2733 22.9859 40.2613C22.9226 40.2494 22.8571 40.2576 22.7988 40.2849C22.7406 40.3122 22.6924 40.3572 22.6613 40.4134L14.8516 54.5281C14.7871 54.6433 14.6833 54.7317 14.559 54.7772C14.4347 54.8226 14.2981 54.8221 14.1742 54.7757L12.4719 54.1297C12.4034 54.1037 12.3408 54.0643 12.2878 54.0139C12.2348 53.9635 12.1925 53.9031 12.1633 53.8361C12.1341 53.7692 12.1186 53.6971 12.1177 53.6241C12.1169 53.5512 12.1306 53.4787 12.1583 53.4111L17.5683 40.1722C17.582 40.1386 17.5912 40.1034 17.5959 40.0674C18.3286 34.4177 20.193 31.5447 20.7469 30.7987C20.7874 30.7439 20.814 30.6802 20.8246 30.6129C20.8351 30.5457 20.8293 30.4769 20.8075 30.4124L20.7314 30.1848C20.701 30.0945 20.6947 29.9978 20.7133 29.9044C20.7319 29.8109 20.7746 29.7239 20.8372 29.6519C22.8333 27.3872 26.3123 28.623 26.3472 28.6357L26.3646 28.6421L26.3755 28.657C30.2765 33.9863 28.8342 51.2959 28.5054 54.7118C28.4931 54.8401 28.4357 54.96 28.3432 55.0503C28.2508 55.1405 28.1292 55.1953 28.0002 55.2048L25.6934 55.3817C25.6791 55.3828 25.6649 55.3833 25.6507 55.3833Z" fill="#2F2E41"/>
<path d="M24.593 15.4135C26.4346 15.4135 27.9276 13.9262 27.9276 12.0916C27.9276 10.257 26.4346 8.76978 24.593 8.76978C22.7513 8.76978 21.2583 10.257 21.2583 12.0916C21.2583 13.9262 22.7513 15.4135 24.593 15.4135Z" fill="#FFB8B8"/>
<path d="M19.4375 33.2292L29.2499 34.1188C28.3944 31.1556 27.6106 28.2027 28.2495 25.2605C29.0608 22.6339 29.1362 21.1788 26.9961 19.9418L25.551 16.7306L22.9358 16.6359L21.6606 16.2877C20.6303 17.9378 20.2089 19.8938 20.4687 21.8197C21.023 26.0078 20.8733 29.8941 19.4375 33.2292Z" fill="#F48221"/>
<path d="M20.9269 18.4059L19.9399 13.8932C19.734 12.825 19.7856 11.7233 20.0907 10.6789C20.1239 10.5719 20.1639 10.467 20.2105 10.3651C20.4837 9.77195 20.9133 9.26373 21.4535 8.89451C21.9936 8.52528 22.6242 8.30889 23.2781 8.26836C25.5212 8.11401 25.8505 8.34957 25.9316 8.46576C27.1991 8.41477 28.182 8.90259 28.6304 9.80533C28.6743 9.89493 28.698 9.99304 28.6997 10.0927C28.7015 10.1924 28.6813 10.2913 28.6405 10.3824C28.5997 10.4735 28.5394 10.5545 28.4638 10.6199C28.3882 10.6852 28.2991 10.7332 28.2029 10.7606C27.5764 10.9405 26.6959 11.1404 26.0356 11.0816C24.7119 12.6631 25.2531 15.5608 26.5959 17.2873L26.6487 17.3552L25.3182 17.6268L23.772 15.4819C23.7414 15.4394 23.6972 15.4088 23.6466 15.3949C23.596 15.3811 23.5422 15.385 23.4941 15.406C23.4461 15.427 23.4067 15.4637 23.3826 15.5101C23.3585 15.5566 23.3511 15.6098 23.3617 15.661L23.8311 17.9327L20.9269 18.4059Z" fill="#2F2E41"/>
<path d="M93.0467 60H0V59.7668H93.0891L93.0467 60Z" fill="#CACACA"/>
<path d="M39.9872 30.5572L15.7179 47.6536L9.9021 39.461L34.1715 22.3646L39.9872 30.5572Z" fill="white"/>
<path d="M18.0945 42.3249C19.0447 41.6556 19.2703 40.3456 18.5983 39.399C17.9264 38.4525 16.6114 38.2278 15.6612 38.8971C14.711 39.5665 14.4854 40.8765 15.1573 41.823C15.8293 42.7696 17.1443 42.9943 18.0945 42.3249Z" fill="#F48221"/>
<path d="M20.0403 36.6693C19.9642 36.7228 19.9127 36.8043 19.8969 36.8958C19.8812 36.9872 19.9025 37.0812 19.9563 37.1569C20.0101 37.2327 20.0919 37.2841 20.1837 37.2997C20.2755 37.3154 20.3698 37.2941 20.4458 37.2406L33.9641 27.7178C34.0398 27.6641 34.0912 27.5827 34.1068 27.4913C34.1224 27.4 34.101 27.3063 34.0473 27.2306C33.9936 27.155 33.912 27.1037 33.8204 27.0879C33.7287 27.0721 33.6346 27.0932 33.5585 27.1465L20.0403 36.6693Z" fill="#E6E6E6"/>
<path d="M21.2569 38.3832C21.1808 38.4367 21.1292 38.518 21.1133 38.6094C21.0974 38.7007 21.1186 38.7946 21.1722 38.8705C21.2258 38.9463 21.3074 38.9978 21.3991 39.0137C21.4908 39.0296 21.5851 39.0086 21.6612 38.9553L21.6624 38.9545L32.2983 31.4622C32.3743 31.4086 32.4259 31.3271 32.4416 31.2357C32.4574 31.1442 32.436 31.0503 32.3822 30.9745C32.3556 30.937 32.3218 30.9051 32.2828 30.8806C32.2438 30.8561 32.2003 30.8395 32.1549 30.8317C32.0631 30.816 31.9688 30.8373 31.8927 30.8909L21.2569 38.3832Z" fill="#E6E6E6"/>
<path d="M39.9872 30.5572L15.7179 47.6536L9.9021 39.461L34.1715 22.3646L39.9872 30.5572ZM15.8596 46.8309L39.1614 30.4161L34.0298 23.1873L10.728 39.6021L15.8596 46.8309Z" fill="#E6E6E6"/>
<path d="M95.4038 27.5218C95.4898 27.5185 95.5756 27.5331 95.6557 27.5646C95.7318 27.5949 95.8007 27.6406 95.8582 27.6987C95.916 27.7572 95.961 27.8269 95.9906 27.9035C96.0219 27.9846 96.0361 28.0712 96.0325 28.1581C96.029 28.2472 96.0082 28.3347 95.9712 28.4159C95.9351 28.4956 95.8848 28.568 95.8227 28.6297C95.7611 28.6911 95.6887 28.7408 95.6092 28.7764C95.5284 28.8125 95.4413 28.8323 95.3528 28.8347C95.2667 28.8373 95.1809 28.822 95.1011 28.7897C95.0254 28.7589 94.9569 28.7129 94.8999 28.6545C94.8427 28.5958 94.7981 28.5261 94.7689 28.4497C94.7382 28.3688 94.7244 28.2826 94.7282 28.1962C94.7317 28.1076 94.7525 28.0205 94.7892 27.9397C94.8252 27.8608 94.875 27.7891 94.9364 27.7278C94.9976 27.6665 95.0695 27.6168 95.1485 27.581C95.2289 27.5448 95.3156 27.5247 95.4038 27.5218Z" fill="#F2F2F2"/>
<path d="M27.1715 35.8558L25.5933 27.2614L25.7044 21.9464L22.1475 21.8357L22.8144 27.815L25.1143 36.1064C24.9234 36.3376 24.8064 36.6204 24.7784 36.9184C24.7505 37.2164 24.8128 37.5159 24.9574 37.7783C25.102 38.0406 25.3222 38.2538 25.5896 38.3903C25.857 38.5268 26.1593 38.5804 26.4575 38.544C26.7558 38.5077 27.0362 38.3831 27.2627 38.1865C27.4892 37.9898 27.6514 37.73 27.7282 37.4407C27.8051 37.1513 27.7931 36.8457 27.6939 36.5632C27.5946 36.2807 27.4127 36.0343 27.1715 35.8558H27.1715Z" fill="#FFB8B8"/>
<path d="M21.9253 22.3893C23.214 21.9003 24.6382 21.9003 25.9269 22.3893L25.7046 17.9601C25.7046 17.7275 25.6586 17.4971 25.5692 17.2821C25.4798 17.0672 25.3488 16.8719 25.1837 16.7074C25.0185 16.5429 24.8225 16.4124 24.6067 16.3233C24.3909 16.2343 24.1596 16.1885 23.9261 16.1885C23.6925 16.1885 23.4613 16.2343 23.2455 16.3233C23.0297 16.4124 22.8337 16.5429 22.6685 16.7074C22.5034 16.8719 22.3724 17.0672 22.283 17.2821C22.1936 17.4971 22.1476 17.7275 22.1476 17.9601L21.9253 22.3893Z" fill="#F48221"/>
</g>
<defs>
<clipPath id="clip0_230_3485">
<rect width="97.193" height="60" fill="white"/>
</clipPath>
</defs>
</svg>
